<?xml version="1.0" encoding="UTF-8" standalone="no"?>
<!DOCTYPE svg PUBLIC "-//W3C//DTD SVG 1.1//EN"
 "http://www.w3.org/Graphics/SVG/1.1/DTD/svg11.dtd">
<!-- Generated by graphviz version 2.43.0 (0)
 -->
<!-- Title: G Pages: 1 -->
<svg width="665pt" height="458pt"
 viewBox="0.00 0.00 665.00 458.00" xmlns="http://www.w3.org/2000/svg" xmlns:xlink="http://www.w3.org/1999/xlink">
<g id="graph0" class="graph" transform="scale(1 1) rotate(0) translate(4 454)">
<title>G</title>
<polygon fill="white" stroke="transparent" points="-4,4 -4,-454 661,-454 661,4 -4,4"/>
<g id="clust1" class="cluster">
<title>cluster_root</title>
<g id="a_clust1"><a xlink:title="eventq_index=0&#10;full_system=false&#10;sim_quantum=0&#10;time_sync_enable=false&#10;time_sync_period=100000000000&#10;time_sync_spin_threshold=100000000">
<path fill="#bab6ae" stroke="#000000" d="M20,-8C20,-8 637,-8 637,-8 643,-8 649,-14 649,-20 649,-20 649,-430 649,-430 649,-436 643,-442 637,-442 637,-442 20,-442 20,-442 14,-442 8,-436 8,-430 8,-430 8,-20 8,-20 8,-14 14,-8 20,-8"/>
<text text-anchor="middle" x="328.5" y="-426.8" font-family="Arial" font-size="14.00" fill="#000000">root </text>
<text text-anchor="middle" x="328.5" y="-411.8" font-family="Arial" font-size="14.00" fill="#000000">: Root</text>
</a>
</g>
</g>
<g id="clust2" class="cluster">
<title>cluster_system</title>
<g id="a_clust2"><a xlink:title="auto_unlink_shared_backstore=false&#10;cache_line_size=64&#10;eventq_index=0&#10;exit_on_work_items=false&#10;init_param=0&#10;m5ops_base=0&#10;mem_mode=timing&#10;mem_ranges=0:536870912&#10;memories=system.mem_ctrl.dram&#10;mmap_using_noreserve=false&#10;multi_thread=false&#10;&#10;um_work_ids=16&#10;&#13;eadfile=&#10;&#13;edirect_paths=&#10;shadow_rom_ranges=&#10;shared_backstore=&#10;symbolfile=&#10;thermal_components=&#10;thermal_model=Null&#10;work_begin_ckpt_count=0&#10;work_begin_cpu_id_exit=&#45;1&#10;work_begin_exit_count=0&#10;work_cpus_ckpt_count=0&#10;work_end_ckpt_count=0&#10;work_end_exit_count=0&#10;work_item_id=&#45;1&#10;workload=system.workload">
<path fill="#e4e7eb" stroke="#000000" d="M28,-16C28,-16 629,-16 629,-16 635,-16 641,-22 641,-28 641,-28 641,-384 641,-384 641,-390 635,-396 629,-396 629,-396 28,-396 28,-396 22,-396 16,-390 16,-384 16,-384 16,-28 16,-28 16,-22 22,-16 28,-16"/>
<text text-anchor="middle" x="328.5" y="-380.8" font-family="Arial" font-size="14.00" fill="#000000">system </text>
<text text-anchor="middle" x="328.5" y="-365.8" font-family="Arial" font-size="14.00" fill="#000000">: System</text>
</a>
</g>
</g>
<g id="clust6" class="cluster">
<title>cluster_system_cpu</title>
<g id="a_clust6"><a xlink:title="branchPred=Null&#10;checker=Null&#10;clk_domain=system.clk_domain&#10;cpu_id=&#45;1&#10;decoder=system.cpu.decoder&#10;do_checkpoint_insts=true&#10;do_statistics_insts=true&#10;eventq_index=0&#10;function_trace=false&#10;function_trace_start=0&#10;interrupts=system.cpu.interrupts&#10;isa=system.cpu.isa&#10;max_insts_all_threads=0&#10;max_insts_any_thread=0&#10;mmu=system.cpu.mmu&#10;&#10;umThreads=1&#10;power_gating_on_idle=false&#10;power_model=&#10;power_state=system.cpu.power_state&#10;progress_interval=0&#10;pwr_gating_latency=300&#10;simpoint_start_insts=&#10;socket_id=0&#10;switched_out=false&#10;syscallRetryLatency=10000&#10;system=system&#10;tracer=system.cpu.tracer&#10;workload=system.cpu.workload">
<path fill="#bbc6d9" stroke="#000000" d="M36,-24C36,-24 536,-24 536,-24 542,-24 548,-30 548,-36 548,-36 548,-156 548,-156 548,-162 542,-168 536,-168 536,-168 36,-168 36,-168 30,-168 24,-162 24,-156 24,-156 24,-36 24,-36 24,-30 30,-24 36,-24"/>
<text text-anchor="middle" x="286" y="-152.8" font-family="Arial" font-size="14.00" fill="#000000">cpu </text>
<text text-anchor="middle" x="286" y="-137.8" font-family="Arial" font-size="14.00" fill="#000000">: X86TimingSimpleCPU</text>
</a>
</g>
</g>
<g id="clust17" class="cluster">
<title>cluster_system_cpu_interrupts</title>
<g id="a_clust17"><a xlink:title="clk_domain=system.cpu.interrupts.clk_domain&#10;eventq_index=0&#10;int_latency=1000&#10;pio_latency=100000&#10;system=system">
<path fill="#bab6ae" stroke="#000000" d="M250,-32C250,-32 528,-32 528,-32 534,-32 540,-38 540,-44 540,-44 540,-110 540,-110 540,-116 534,-122 528,-122 528,-122 250,-122 250,-122 244,-122 238,-116 238,-110 238,-110 238,-44 238,-44 238,-38 244,-32 250,-32"/>
<text text-anchor="middle" x="389" y="-106.8" font-family="Arial" font-size="14.00" fill="#000000">interrupts </text>
<text text-anchor="middle" x="389" y="-91.8" font-family="Arial" font-size="14.00" fill="#000000">: X86LocalApic</text>
</a>
</g>
</g>
<g id="clust22" class="cluster">
<title>cluster_system_membus</title>
<g id="a_clust22"><a xlink:title="clk_domain=system.clk_domain&#10;eventq_index=0&#10;forward_latency=4&#10;frontend_latency=3&#10;header_latency=1&#10;max_outstanding_snoops=512&#10;max_routing_table_size=512&#10;point_of_coherency=true&#10;point_of_unification=true&#10;power_model=&#10;power_state=system.membus.power_state&#10;&#13;esponse_latency=2&#10;snoop_filter=system.membus.snoop_filter&#10;snoop_response_latency=4&#10;system=system&#10;use_default_range=false&#10;width=16">
<path fill="#6f798c" stroke="#000000" d="M225,-176C225,-176 461,-176 461,-176 467,-176 473,-182 473,-188 473,-188 473,-254 473,-254 473,-260 467,-266 461,-266 461,-266 225,-266 225,-266 219,-266 213,-260 213,-254 213,-254 213,-188 213,-188 213,-182 219,-176 225,-176"/>
<text text-anchor="middle" x="343" y="-250.8" font-family="Arial" font-size="14.00" fill="#000000">membus </text>
<text text-anchor="middle" x="343" y="-235.8" font-family="Arial" font-size="14.00" fill="#000000">: SystemXBar</text>
</a>
</g>
</g>
<g id="clust25" class="cluster">
<title>cluster_system_mem_ctrl</title>
<g id="a_clust25"><a xlink:title="clk_domain=system.clk_domain&#10;command_window=10000&#10;disable_sanity_check=false&#10;dram=system.mem_ctrl.dram&#10;eventq_index=0&#10;mem_sched_policy=frfcfs&#10;min_reads_per_switch=16&#10;min_writes_per_switch=16&#10;power_model=&#10;power_state=system.mem_ctrl.power_state&#10;qos_policy=Null&#10;qos_priorities=1&#10;qos_priority_escalation=false&#10;qos_q_policy=fifo&#10;qos_requestors= &#160;&#160;&#160;&#160;&#160;&#160;&#160;&#160;&#160;&#160;&#160;&#160;&#160;&#160;&#10;qos_syncro_scheduler=false&#10;qos_turnaround_policy=Null&#10;static_backend_latency=10000&#10;static_frontend_latency=10000&#10;system=system&#10;write_high_thresh_perc=85&#10;write_low_thresh_perc=50">
<path fill="#bab6ae" stroke="#000000" d="M568,-32C568,-32 621,-32 621,-32 627,-32 633,-38 633,-44 633,-44 633,-110 633,-110 633,-116 627,-122 621,-122 621,-122 568,-122 568,-122 562,-122 556,-116 556,-110 556,-110 556,-44 556,-44 556,-38 562,-32 568,-32"/>
<text text-anchor="middle" x="594.5" y="-106.8" font-family="Arial" font-size="14.00" fill="#000000">mem_ctrl </text>
<text text-anchor="middle" x="594.5" y="-91.8" font-family="Arial" font-size="14.00" fill="#000000">: MemCtrl</text>
</a>
</g>
</g>
<!-- system_system_port -->
<g id="node1" class="node">
<title>system_system_port</title>
<path fill="#b6b8bc" stroke="#000000" d="M308.5,-350C308.5,-350 241.5,-350 241.5,-350 235.5,-350 229.5,-344 229.5,-338 229.5,-338 229.5,-326 229.5,-326 229.5,-320 235.5,-314 241.5,-314 241.5,-314 308.5,-314 308.5,-314 314.5,-314 320.5,-320 320.5,-326 320.5,-326 320.5,-338 320.5,-338 320.5,-344 314.5,-350 308.5,-350"/>
<text text-anchor="middle" x="275" y="-328.3" font-family="Arial" font-size="14.00" fill="#000000">system_port</text>
</g>
<!-- system_membus_cpu_side_ports -->
<g id="node7" class="node">
<title>system_membus_cpu_side_ports</title>
<path fill="#586070" stroke="#000000" d="M317,-220C317,-220 233,-220 233,-220 227,-220 221,-214 221,-208 221,-208 221,-196 221,-196 221,-190 227,-184 233,-184 233,-184 317,-184 317,-184 323,-184 329,-190 329,-196 329,-196 329,-208 329,-208 329,-214 323,-220 317,-220"/>
<text text-anchor="middle" x="275" y="-198.3" font-family="Arial" font-size="14.00" fill="#000000">cpu_side_ports</text>
</g>
<!-- system_system_port&#45;&gt;system_membus_cpu_side_ports -->
<g id="edge1" class="edge">
<title>system_system_port&#45;&gt;system_membus_cpu_side_ports</title>
<path fill="none" stroke="black" d="M275,-313.74C275,-292.36 275,-255.69 275,-230.44"/>
<polygon fill="black" stroke="black" points="278.5,-230.4 275,-220.4 271.5,-230.4 278.5,-230.4"/>
</g>
<!-- system_cpu_icache_port -->
<g id="node2" class="node">
<title>system_cpu_icache_port</title>
<path fill="#959ead" stroke="#000000" d="M216,-76C216,-76 154,-76 154,-76 148,-76 142,-70 142,-64 142,-64 142,-52 142,-52 142,-46 148,-40 154,-40 154,-40 216,-40 216,-40 222,-40 228,-46 228,-52 228,-52 228,-64 228,-64 228,-70 222,-76 216,-76"/>
<text text-anchor="middle" x="185" y="-54.3" font-family="Arial" font-size="14.00" fill="#000000">icache_port</text>
</g>
<!-- system_cpu_dcache_port -->
<g id="node3" class="node">
<title>system_cpu_dcache_port</title>
<path fill="#959ead" stroke="#000000" d="M111.5,-76C111.5,-76 44.5,-76 44.5,-76 38.5,-76 32.5,-70 32.5,-64 32.5,-64 32.5,-52 32.5,-52 32.5,-46 38.5,-40 44.5,-40 44.5,-40 111.5,-40 111.5,-40 117.5,-40 123.5,-46 123.5,-52 123.5,-52 123.5,-64 123.5,-64 123.5,-70 117.5,-76 111.5,-76"/>
<text text-anchor="middle" x="78" y="-54.3" font-family="Arial" font-size="14.00" fill="#000000">dcache_port</text>
</g>
<!-- system_cpu_interrupts_int_requestor -->
<g id="node4" class="node">
<title>system_cpu_interrupts_int_requestor</title>
<path fill="#94918b" stroke="#000000" d="M329.5,-76C329.5,-76 258.5,-76 258.5,-76 252.5,-76 246.5,-70 246.5,-64 246.5,-64 246.5,-52 246.5,-52 246.5,-46 252.5,-40 258.5,-40 258.5,-40 329.5,-40 329.5,-40 335.5,-40 341.5,-46 341.5,-52 341.5,-52 341.5,-64 341.5,-64 341.5,-70 335.5,-76 329.5,-76"/>
<text text-anchor="middle" x="294" y="-54.3" font-family="Arial" font-size="14.00" fill="#000000">int_requestor</text>
</g>
<!-- system_cpu_interrupts_int_responder -->
<g id="node5" class="node">
<title>system_cpu_interrupts_int_responder</title>
<path fill="#94918b" stroke="#000000" d="M519.5,-76C519.5,-76 444.5,-76 444.5,-76 438.5,-76 432.5,-70 432.5,-64 432.5,-64 432.5,-52 432.5,-52 432.5,-46 438.5,-40 444.5,-40 444.5,-40 519.5,-40 519.5,-40 525.5,-40 531.5,-46 531.5,-52 531.5,-52 531.5,-64 531.5,-64 531.5,-70 525.5,-76 519.5,-76"/>
<text text-anchor="middle" x="482" y="-54.3" font-family="Arial" font-size="14.00" fill="#000000">int_responder</text>
</g>
<!-- system_cpu_interrupts_pio -->
<g id="node6" class="node">
<title>system_cpu_interrupts_pio</title>
<path fill="#94918b" stroke="#000000" d="M402,-76C402,-76 372,-76 372,-76 366,-76 360,-70 360,-64 360,-64 360,-52 360,-52 360,-46 366,-40 372,-40 372,-40 402,-40 402,-40 408,-40 414,-46 414,-52 414,-52 414,-64 414,-64 414,-70 408,-76 402,-76"/>
<text text-anchor="middle" x="387" y="-54.3" font-family="Arial" font-size="14.00" fill="#000000">pio</text>
</g>
<!-- system_membus_cpu_side_ports&#45;&gt;system_cpu_icache_port -->
<g id="edge2" class="edge">
<title>system_membus_cpu_side_ports&#45;&gt;system_cpu_icache_port</title>
<path fill="none" stroke="black" d="M242.22,-177.09C239.25,-174.21 236.44,-171.16 234,-168 211.8,-139.27 197.06,-98.88 189.95,-76.2"/>
<polygon fill="black" stroke="black" points="240.05,-179.83 249.85,-183.86 244.69,-174.6 240.05,-179.83"/>
</g>
<!-- system_membus_cpu_side_ports&#45;&gt;system_cpu_dcache_port -->
<g id="edge3" class="edge">
<title>system_membus_cpu_side_ports&#45;&gt;system_cpu_dcache_port</title>
<path fill="none" stroke="black" d="M210.77,-197.87C184.4,-193.77 154.97,-185.26 133,-168 103.16,-144.56 88.16,-100.61 81.84,-76.29"/>
<polygon fill="black" stroke="black" points="210.32,-201.34 220.7,-199.23 211.27,-194.41 210.32,-201.34"/>
</g>
<!-- system_membus_cpu_side_ports&#45;&gt;system_cpu_interrupts_int_requestor -->
<g id="edge4" class="edge">
<title>system_membus_cpu_side_ports&#45;&gt;system_cpu_interrupts_int_requestor</title>
<path fill="none" stroke="black" d="M278.66,-173.68C282.51,-144.89 288.46,-100.42 291.7,-76.19"/>
<polygon fill="black" stroke="black" points="275.15,-173.5 277.29,-183.87 282.09,-174.42 275.15,-173.5"/>
</g>
<!-- system_membus_mem_side_ports -->
<g id="node8" class="node">
<title>system_membus_mem_side_ports</title>
<path fill="#586070" stroke="#000000" d="M453,-220C453,-220 359,-220 359,-220 353,-220 347,-214 347,-208 347,-208 347,-196 347,-196 347,-190 353,-184 359,-184 359,-184 453,-184 453,-184 459,-184 465,-190 465,-196 465,-196 465,-208 465,-208 465,-214 459,-220 453,-220"/>
<text text-anchor="middle" x="406" y="-198.3" font-family="Arial" font-size="14.00" fill="#000000">mem_side_ports</text>
</g>
<!-- system_membus_mem_side_ports&#45;&gt;system_cpu_interrupts_int_responder -->
<g id="edge6" class="edge">
<title>system_membus_mem_side_ports&#45;&gt;system_cpu_interrupts_int_responder</title>
<path fill="none" stroke="black" d="M415.17,-183.87C428.29,-159.35 452.55,-114.03 467.95,-85.26"/>
<polygon fill="black" stroke="black" points="471.17,-86.66 472.8,-76.19 465,-83.35 471.17,-86.66"/>
</g>
<!-- system_membus_mem_side_ports&#45;&gt;system_cpu_interrupts_pio -->
<g id="edge5" class="edge">
<title>system_membus_mem_side_ports&#45;&gt;system_cpu_interrupts_pio</title>
<path fill="none" stroke="black" d="M403.71,-183.87C400.47,-159.67 394.52,-115.21 390.67,-86.39"/>
<polygon fill="black" stroke="black" points="394.1,-85.64 389.3,-76.19 387.16,-86.57 394.1,-85.64"/>
</g>
<!-- system_mem_ctrl_port -->
<g id="node9" class="node">
<title>system_mem_ctrl_port</title>
<path fill="#94918b" stroke="#000000" d="M606,-76C606,-76 576,-76 576,-76 570,-76 564,-70 564,-64 564,-64 564,-52 564,-52 564,-46 570,-40 576,-40 576,-40 606,-40 606,-40 612,-40 618,-46 618,-52 618,-52 618,-64 618,-64 618,-70 612,-76 606,-76"/>
<text text-anchor="middle" x="591" y="-54.3" font-family="Arial" font-size="14.00" fill="#000000">port</text>
</g>
<!-- system_membus_mem_side_ports&#45;&gt;system_mem_ctrl_port -->
<g id="edge7" class="edge">
<title>system_membus_mem_side_ports&#45;&gt;system_mem_ctrl_port</title>
<path fill="none" stroke="black" d="M465.05,-198.69C491.75,-194.89 522.13,-186.39 544,-168 568.7,-147.23 580.77,-111.07 586.42,-86.13"/>
<polygon fill="black" stroke="black" points="589.87,-86.71 588.46,-76.21 583.02,-85.3 589.87,-86.71"/>
</g>
</g>
</svg>
