<?xml version="1.0" encoding="UTF-8" standalone="no"?>
<!DOCTYPE svg PUBLIC "-//W3C//DTD SVG 1.1//EN"
 "http://www.w3.org/Graphics/SVG/1.1/DTD/svg11.dtd">
<!-- Generated by graphviz version 2.43.0 (0)
 -->
<!-- Title: G Pages: 1 -->
<svg width="548pt" height="507pt"
 viewBox="0.00 0.00 548.17 506.54" xmlns="http://www.w3.org/2000/svg" xmlns:xlink="http://www.w3.org/1999/xlink">
<g id="graph0" class="graph" transform="scale(1 1) rotate(0) translate(4 502.54)">
<title>G</title>
<polygon fill="white" stroke="transparent" points="-4,4 -4,-502.54 544.17,-502.54 544.17,4 -4,4"/>
<!-- system.ruby.network.routers00 -->
<g id="node1" class="node">
<title>system.ruby.network.routers00</title>
<path fill="#cce6fc" stroke="#000000" d="M104.18,-86.96C104.18,-86.96 134.18,-86.96 134.18,-86.96 140.18,-86.96 146.18,-92.96 146.18,-98.96 146.18,-98.96 146.18,-110.96 146.18,-110.96 146.18,-116.96 140.18,-122.96 134.18,-122.96 134.18,-122.96 104.18,-122.96 104.18,-122.96 98.18,-122.96 92.18,-116.96 92.18,-110.96 92.18,-110.96 92.18,-98.96 92.18,-98.96 92.18,-92.96 98.18,-86.96 104.18,-86.96"/>
<text text-anchor="middle" x="119.18" y="-101.26" font-family="Arial" font-size="14.00" fill="#000000">R 0</text>
</g>
<!-- system.ruby.network.routers01 -->
<g id="node2" class="node">
<title>system.ruby.network.routers01</title>
<path fill="#cce6fc" stroke="#000000" d="M105.79,-183.57C105.79,-183.57 135.79,-183.57 135.79,-183.57 141.79,-183.57 147.79,-189.57 147.79,-195.57 147.79,-195.57 147.79,-207.57 147.79,-207.57 147.79,-213.57 141.79,-219.57 135.79,-219.57 135.79,-219.57 105.79,-219.57 105.79,-219.57 99.79,-219.57 93.79,-213.57 93.79,-207.57 93.79,-207.57 93.79,-195.57 93.79,-195.57 93.79,-189.57 99.79,-183.57 105.79,-183.57"/>
<text text-anchor="middle" x="120.79" y="-197.87" font-family="Arial" font-size="14.00" fill="#000000">R 1</text>
</g>
<!-- system.ruby.network.routers00&#45;&#45;system.ruby.network.routers01 -->
<g id="edge1" class="edge">
<title>system.ruby.network.routers00&#45;&#45;system.ruby.network.routers01</title>
<path fill="none" stroke="#042d50" d="M119.48,-123.13C119.72,-137.3 120.05,-157.23 120.32,-173.45"/>
<polygon fill="#042d50" stroke="#042d50" points="116.82,-173.54 120.49,-183.48 123.82,-173.42 116.82,-173.54"/>
</g>
<!-- system.ruby.network.routers04 -->
<g id="node5" class="node">
<title>system.ruby.network.routers04</title>
<path fill="#cce6fc" stroke="#000000" d="M201.43,-86.42C201.43,-86.42 231.43,-86.42 231.43,-86.42 237.43,-86.42 243.43,-92.42 243.43,-98.42 243.43,-98.42 243.43,-110.42 243.43,-110.42 243.43,-116.42 237.43,-122.42 231.43,-122.42 231.43,-122.42 201.43,-122.42 201.43,-122.42 195.43,-122.42 189.43,-116.42 189.43,-110.42 189.43,-110.42 189.43,-98.42 189.43,-98.42 189.43,-92.42 195.43,-86.42 201.43,-86.42"/>
<text text-anchor="middle" x="216.43" y="-100.72" font-family="Arial" font-size="14.00" fill="#000000">R 4</text>
</g>
<!-- system.ruby.network.routers00&#45;&#45;system.ruby.network.routers04 -->
<g id="edge13" class="edge">
<title>system.ruby.network.routers00&#45;&#45;system.ruby.network.routers04</title>
<path fill="none" stroke="#042d50" d="M146.27,-104.81C156.4,-104.75 168.11,-104.69 179.01,-104.63"/>
<polygon fill="#042d50" stroke="#042d50" points="179.17,-108.13 189.15,-104.57 179.13,-101.13 179.17,-108.13"/>
</g>
<!-- system.ruby.network.routers02 -->
<g id="node3" class="node">
<title>system.ruby.network.routers02</title>
<path fill="#cce6fc" stroke="#000000" d="M108.89,-278.8C108.89,-278.8 138.89,-278.8 138.89,-278.8 144.89,-278.8 150.89,-284.8 150.89,-290.8 150.89,-290.8 150.89,-302.8 150.89,-302.8 150.89,-308.8 144.89,-314.8 138.89,-314.8 138.89,-314.8 108.89,-314.8 108.89,-314.8 102.89,-314.8 96.89,-308.8 96.89,-302.8 96.89,-302.8 96.89,-290.8 96.89,-290.8 96.89,-284.8 102.89,-278.8 108.89,-278.8"/>
<text text-anchor="middle" x="123.89" y="-293.1" font-family="Arial" font-size="14.00" fill="#000000">R 2</text>
</g>
<!-- system.ruby.network.routers01&#45;&#45;system.ruby.network.routers02 -->
<g id="edge2" class="edge">
<title>system.ruby.network.routers01&#45;&#45;system.ruby.network.routers02</title>
<path fill="none" stroke="#042d50" d="M121.39,-219.93C121.83,-233.64 122.45,-252.61 122.96,-268.28"/>
<polygon fill="#042d50" stroke="#042d50" points="119.47,-268.62 123.29,-278.5 126.46,-268.39 119.47,-268.62"/>
</g>
<!-- system.ruby.network.routers05 -->
<g id="node6" class="node">
<title>system.ruby.network.routers05</title>
<path fill="#cce6fc" stroke="#000000" d="M208.71,-185.38C208.71,-185.38 238.71,-185.38 238.71,-185.38 244.71,-185.38 250.71,-191.38 250.71,-197.38 250.71,-197.38 250.71,-209.38 250.71,-209.38 250.71,-215.38 244.71,-221.38 238.71,-221.38 238.71,-221.38 208.71,-221.38 208.71,-221.38 202.71,-221.38 196.71,-215.38 196.71,-209.38 196.71,-209.38 196.71,-197.38 196.71,-197.38 196.71,-191.38 202.71,-185.38 208.71,-185.38"/>
<text text-anchor="middle" x="223.71" y="-199.68" font-family="Arial" font-size="14.00" fill="#000000">R 5</text>
</g>
<!-- system.ruby.network.routers01&#45;&#45;system.ruby.network.routers05 -->
<g id="edge16" class="edge">
<title>system.ruby.network.routers01&#45;&#45;system.ruby.network.routers05</title>
<path fill="none" stroke="#042d50" d="M147.83,-202.05C159.55,-202.25 173.48,-202.5 186.18,-202.72"/>
<polygon fill="#042d50" stroke="#042d50" points="186.43,-206.23 196.49,-202.9 186.55,-199.23 186.43,-206.23"/>
</g>
<!-- system.ruby.network.routers03 -->
<g id="node4" class="node">
<title>system.ruby.network.routers03</title>
<path fill="#cce6fc" stroke="#000000" d="M114.65,-375.77C114.65,-375.77 144.65,-375.77 144.65,-375.77 150.65,-375.77 156.65,-381.77 156.65,-387.77 156.65,-387.77 156.65,-399.77 156.65,-399.77 156.65,-405.77 150.65,-411.77 144.65,-411.77 144.65,-411.77 114.65,-411.77 114.65,-411.77 108.65,-411.77 102.65,-405.77 102.65,-399.77 102.65,-399.77 102.65,-387.77 102.65,-387.77 102.65,-381.77 108.65,-375.77 114.65,-375.77"/>
<text text-anchor="middle" x="129.65" y="-390.07" font-family="Arial" font-size="14.00" fill="#000000">R 3</text>
</g>
<!-- system.ruby.network.routers02&#45;&#45;system.ruby.network.routers03 -->
<g id="edge3" class="edge">
<title>system.ruby.network.routers02&#45;&#45;system.ruby.network.routers03</title>
<path fill="none" stroke="#042d50" d="M124.97,-315.04C125.82,-329.26 127.01,-349.26 127.97,-365.55"/>
<polygon fill="#042d50" stroke="#042d50" points="124.48,-365.84 128.57,-375.61 131.47,-365.42 124.48,-365.84"/>
</g>
<!-- system.ruby.network.routers06 -->
<g id="node7" class="node">
<title>system.ruby.network.routers06</title>
<path fill="#cce6fc" stroke="#000000" d="M210.29,-277.56C210.29,-277.56 240.29,-277.56 240.29,-277.56 246.29,-277.56 252.29,-283.56 252.29,-289.56 252.29,-289.56 252.29,-301.56 252.29,-301.56 252.29,-307.56 246.29,-313.56 240.29,-313.56 240.29,-313.56 210.29,-313.56 210.29,-313.56 204.29,-313.56 198.29,-307.56 198.29,-301.56 198.29,-301.56 198.29,-289.56 198.29,-289.56 198.29,-283.56 204.29,-277.56 210.29,-277.56"/>
<text text-anchor="middle" x="225.29" y="-291.86" font-family="Arial" font-size="14.00" fill="#000000">R 6</text>
</g>
<!-- system.ruby.network.routers02&#45;&#45;system.ruby.network.routers06 -->
<g id="edge19" class="edge">
<title>system.ruby.network.routers02&#45;&#45;system.ruby.network.routers06</title>
<path fill="none" stroke="#042d50" d="M151.06,-296.47C162.31,-296.33 175.55,-296.17 187.71,-296.02"/>
<polygon fill="#042d50" stroke="#042d50" points="188.08,-299.52 198.04,-295.9 188,-292.52 188.08,-299.52"/>
</g>
<!-- system.ruby.network.routers07 -->
<g id="node8" class="node">
<title>system.ruby.network.routers07</title>
<path fill="#cce6fc" stroke="#000000" d="M212.06,-378.73C212.06,-378.73 242.06,-378.73 242.06,-378.73 248.06,-378.73 254.06,-384.73 254.06,-390.73 254.06,-390.73 254.06,-402.73 254.06,-402.73 254.06,-408.73 248.06,-414.73 242.06,-414.73 242.06,-414.73 212.06,-414.73 212.06,-414.73 206.06,-414.73 200.06,-408.73 200.06,-402.73 200.06,-402.73 200.06,-390.73 200.06,-390.73 200.06,-384.73 206.06,-378.73 212.06,-378.73"/>
<text text-anchor="middle" x="227.06" y="-393.03" font-family="Arial" font-size="14.00" fill="#000000">R 7</text>
</g>
<!-- system.ruby.network.routers03&#45;&#45;system.ruby.network.routers07 -->
<g id="edge22" class="edge">
<title>system.ruby.network.routers03&#45;&#45;system.ruby.network.routers07</title>
<path fill="none" stroke="#042d50" d="M156.79,-394.59C166.94,-394.9 178.66,-395.26 189.58,-395.59"/>
<polygon fill="#042d50" stroke="#042d50" points="189.63,-399.09 199.74,-395.9 189.85,-392.09 189.63,-399.09"/>
</g>
<!-- system.ruby.network.routers04&#45;&#45;system.ruby.network.routers05 -->
<g id="edge4" class="edge">
<title>system.ruby.network.routers04&#45;&#45;system.ruby.network.routers05</title>
<path fill="none" stroke="#042d50" d="M217.77,-122.57C218.84,-137.22 220.38,-158.09 221.62,-174.95"/>
<polygon fill="#042d50" stroke="#042d50" points="218.16,-175.63 222.38,-185.35 225.14,-175.12 218.16,-175.63"/>
</g>
<!-- system.ruby.network.routers08 -->
<g id="node9" class="node">
<title>system.ruby.network.routers08</title>
<path fill="#cce6fc" stroke="#000000" d="M294.54,-84.47C294.54,-84.47 324.54,-84.47 324.54,-84.47 330.54,-84.47 336.54,-90.47 336.54,-96.47 336.54,-96.47 336.54,-108.47 336.54,-108.47 336.54,-114.47 330.54,-120.47 324.54,-120.47 324.54,-120.47 294.54,-120.47 294.54,-120.47 288.54,-120.47 282.54,-114.47 282.54,-108.47 282.54,-108.47 282.54,-96.47 282.54,-96.47 282.54,-90.47 288.54,-84.47 294.54,-84.47"/>
<text text-anchor="middle" x="309.54" y="-98.77" font-family="Arial" font-size="14.00" fill="#000000">R 8</text>
</g>
<!-- system.ruby.network.routers04&#45;&#45;system.ruby.network.routers08 -->
<g id="edge14" class="edge">
<title>system.ruby.network.routers04&#45;&#45;system.ruby.network.routers08</title>
<path fill="none" stroke="#042d50" d="M243.86,-103.84C252.77,-103.66 262.8,-103.45 272.29,-103.25"/>
<polygon fill="#042d50" stroke="#042d50" points="272.38,-106.75 282.3,-103.04 272.23,-99.75 272.38,-106.75"/>
</g>
<!-- system.ruby.network.routers05&#45;&#45;system.ruby.network.routers06 -->
<g id="edge5" class="edge">
<title>system.ruby.network.routers05&#45;&#45;system.ruby.network.routers06</title>
<path fill="none" stroke="#042d50" d="M224.02,-221.6C224.24,-234.6 224.55,-252.35 224.8,-267.2"/>
<polygon fill="#042d50" stroke="#042d50" points="221.3,-267.45 224.98,-277.39 228.3,-267.33 221.3,-267.45"/>
</g>
<!-- system.ruby.network.routers09 -->
<g id="node10" class="node">
<title>system.ruby.network.routers09</title>
<path fill="#cce6fc" stroke="#000000" d="M296.66,-183.24C296.66,-183.24 326.66,-183.24 326.66,-183.24 332.66,-183.24 338.66,-189.24 338.66,-195.24 338.66,-195.24 338.66,-207.24 338.66,-207.24 338.66,-213.24 332.66,-219.24 326.66,-219.24 326.66,-219.24 296.66,-219.24 296.66,-219.24 290.66,-219.24 284.66,-213.24 284.66,-207.24 284.66,-207.24 284.66,-195.24 284.66,-195.24 284.66,-189.24 290.66,-183.24 296.66,-183.24"/>
<text text-anchor="middle" x="311.66" y="-197.54" font-family="Arial" font-size="14.00" fill="#000000">R 9</text>
</g>
<!-- system.ruby.network.routers05&#45;&#45;system.ruby.network.routers09 -->
<g id="edge17" class="edge">
<title>system.ruby.network.routers05&#45;&#45;system.ruby.network.routers09</title>
<path fill="none" stroke="#042d50" d="M251.05,-202.72C258.49,-202.54 266.66,-202.34 274.54,-202.15"/>
<polygon fill="#042d50" stroke="#042d50" points="274.72,-205.64 284.63,-201.9 274.55,-198.65 274.72,-205.64"/>
</g>
<!-- system.ruby.network.routers06&#45;&#45;system.ruby.network.routers07 -->
<g id="edge6" class="edge">
<title>system.ruby.network.routers06&#45;&#45;system.ruby.network.routers07</title>
<path fill="none" stroke="#042d50" d="M225.61,-313.65C225.87,-328.8 226.26,-350.71 226.56,-368.22"/>
<polygon fill="#042d50" stroke="#042d50" points="223.07,-368.52 226.74,-378.46 230.07,-368.4 223.07,-368.52"/>
</g>
<!-- system.ruby.network.routers10 -->
<g id="node11" class="node">
<title>system.ruby.network.routers10</title>
<path fill="#cce6fc" stroke="#000000" d="M301.61,-274.66C301.61,-274.66 331.61,-274.66 331.61,-274.66 337.61,-274.66 343.61,-280.66 343.61,-286.66 343.61,-286.66 343.61,-298.66 343.61,-298.66 343.61,-304.66 337.61,-310.66 331.61,-310.66 331.61,-310.66 301.61,-310.66 301.61,-310.66 295.61,-310.66 289.61,-304.66 289.61,-298.66 289.61,-298.66 289.61,-286.66 289.61,-286.66 289.61,-280.66 295.61,-274.66 301.61,-274.66"/>
<text text-anchor="middle" x="316.61" y="-288.96" font-family="Arial" font-size="14.00" fill="#000000">R 10</text>
</g>
<!-- system.ruby.network.routers06&#45;&#45;system.ruby.network.routers10 -->
<g id="edge20" class="edge">
<title>system.ruby.network.routers06&#45;&#45;system.ruby.network.routers10</title>
<path fill="none" stroke="#042d50" d="M252.69,-294.69C261.07,-294.43 270.44,-294.13 279.36,-293.84"/>
<polygon fill="#042d50" stroke="#042d50" points="279.66,-297.34 289.55,-293.52 279.44,-290.34 279.66,-297.34"/>
</g>
<!-- system.ruby.network.routers11 -->
<g id="node12" class="node">
<title>system.ruby.network.routers11</title>
<path fill="#cce6fc" stroke="#000000" d="M306.28,-376.78C306.28,-376.78 336.28,-376.78 336.28,-376.78 342.28,-376.78 348.28,-382.78 348.28,-388.78 348.28,-388.78 348.28,-400.78 348.28,-400.78 348.28,-406.78 342.28,-412.78 336.28,-412.78 336.28,-412.78 306.28,-412.78 306.28,-412.78 300.28,-412.78 294.28,-406.78 294.28,-400.78 294.28,-400.78 294.28,-388.78 294.28,-388.78 294.28,-382.78 300.28,-376.78 306.28,-376.78"/>
<text text-anchor="middle" x="321.28" y="-391.08" font-family="Arial" font-size="14.00" fill="#000000">R 11</text>
</g>
<!-- system.ruby.network.routers07&#45;&#45;system.ruby.network.routers11 -->
<g id="edge23" class="edge">
<title>system.ruby.network.routers07&#45;&#45;system.ruby.network.routers11</title>
<path fill="none" stroke="#042d50" d="M254.32,-396.16C263.59,-395.97 274.13,-395.76 284.05,-395.55"/>
<polygon fill="#042d50" stroke="#042d50" points="284.17,-399.05 294.09,-395.34 284.02,-392.05 284.17,-399.05"/>
</g>
<!-- system.ruby.network.routers08&#45;&#45;system.ruby.network.routers09 -->
<g id="edge7" class="edge">
<title>system.ruby.network.routers08&#45;&#45;system.ruby.network.routers09</title>
<path fill="none" stroke="#042d50" d="M309.92,-120.58C310.24,-135.2 310.69,-156.03 311.05,-172.86"/>
<polygon fill="#042d50" stroke="#042d50" points="307.56,-173.32 311.27,-183.24 314.56,-173.17 307.56,-173.32"/>
</g>
<!-- system.ruby.network.routers12 -->
<g id="node13" class="node">
<title>system.ruby.network.routers12</title>
<path fill="#cce6fc" stroke="#000000" d="M390.63,-82.46C390.63,-82.46 420.63,-82.46 420.63,-82.46 426.63,-82.46 432.63,-88.46 432.63,-94.46 432.63,-94.46 432.63,-106.46 432.63,-106.46 432.63,-112.46 426.63,-118.46 420.63,-118.46 420.63,-118.46 390.63,-118.46 390.63,-118.46 384.63,-118.46 378.63,-112.46 378.63,-106.46 378.63,-106.46 378.63,-94.46 378.63,-94.46 378.63,-88.46 384.63,-82.46 390.63,-82.46"/>
<text text-anchor="middle" x="405.63" y="-96.76" font-family="Arial" font-size="14.00" fill="#000000">R 12</text>
</g>
<!-- system.ruby.network.routers08&#45;&#45;system.ruby.network.routers12 -->
<g id="edge15" class="edge">
<title>system.ruby.network.routers08&#45;&#45;system.ruby.network.routers12</title>
<path fill="none" stroke="#042d50" d="M336.56,-101.9C346.39,-101.7 357.67,-101.46 368.24,-101.24"/>
<polygon fill="#042d50" stroke="#042d50" points="368.56,-104.73 378.48,-101.03 368.41,-97.73 368.56,-104.73"/>
</g>
<!-- system.ruby.network.routers09&#45;&#45;system.ruby.network.routers10 -->
<g id="edge8" class="edge">
<title>system.ruby.network.routers09&#45;&#45;system.ruby.network.routers10</title>
<path fill="none" stroke="#042d50" d="M312.64,-219.3C313.34,-232.2 314.29,-249.8 315.09,-264.53"/>
<polygon fill="#042d50" stroke="#042d50" points="311.6,-264.84 315.64,-274.64 318.59,-264.46 311.6,-264.84"/>
</g>
<!-- system.ruby.network.routers13 -->
<g id="node14" class="node">
<title>system.ruby.network.routers13</title>
<path fill="#cce6fc" stroke="#000000" d="M398.83,-177.72C398.83,-177.72 428.83,-177.72 428.83,-177.72 434.83,-177.72 440.83,-183.72 440.83,-189.72 440.83,-189.72 440.83,-201.72 440.83,-201.72 440.83,-207.72 434.83,-213.72 428.83,-213.72 428.83,-213.72 398.83,-213.72 398.83,-213.72 392.83,-213.72 386.83,-207.72 386.83,-201.72 386.83,-201.72 386.83,-189.72 386.83,-189.72 386.83,-183.72 392.83,-177.72 398.83,-177.72"/>
<text text-anchor="middle" x="413.83" y="-192.02" font-family="Arial" font-size="14.00" fill="#000000">R 13</text>
</g>
<!-- system.ruby.network.routers09&#45;&#45;system.ruby.network.routers13 -->
<g id="edge18" class="edge">
<title>system.ruby.network.routers09&#45;&#45;system.ruby.network.routers13</title>
<path fill="none" stroke="#042d50" d="M338.77,-199.78C350.32,-199.15 363.98,-198.42 376.46,-197.74"/>
<polygon fill="#042d50" stroke="#042d50" points="376.8,-201.23 386.59,-197.19 376.42,-194.24 376.8,-201.23"/>
</g>
<!-- system.ruby.network.routers10&#45;&#45;system.ruby.network.routers11 -->
<g id="edge9" class="edge">
<title>system.ruby.network.routers10&#45;&#45;system.ruby.network.routers11</title>
<path fill="none" stroke="#042d50" d="M317.45,-310.92C318.16,-326.38 319.18,-348.81 319.99,-366.59"/>
<polygon fill="#042d50" stroke="#042d50" points="316.5,-366.85 320.46,-376.68 323.5,-366.53 316.5,-366.85"/>
</g>
<!-- system.ruby.network.routers14 -->
<g id="node15" class="node">
<title>system.ruby.network.routers14</title>
<path fill="#cce6fc" stroke="#000000" d="M401.54,-272.02C401.54,-272.02 431.54,-272.02 431.54,-272.02 437.54,-272.02 443.54,-278.02 443.54,-284.02 443.54,-284.02 443.54,-296.02 443.54,-296.02 443.54,-302.02 437.54,-308.02 431.54,-308.02 431.54,-308.02 401.54,-308.02 401.54,-308.02 395.54,-308.02 389.54,-302.02 389.54,-296.02 389.54,-296.02 389.54,-284.02 389.54,-284.02 389.54,-278.02 395.54,-272.02 401.54,-272.02"/>
<text text-anchor="middle" x="416.54" y="-286.32" font-family="Arial" font-size="14.00" fill="#000000">R 14</text>
</g>
<!-- system.ruby.network.routers10&#45;&#45;system.ruby.network.routers14 -->
<g id="edge21" class="edge">
<title>system.ruby.network.routers10&#45;&#45;system.ruby.network.routers14</title>
<path fill="none" stroke="#042d50" d="M343.65,-291.95C354.65,-291.66 367.54,-291.32 379.4,-291"/>
<polygon fill="#042d50" stroke="#042d50" points="379.57,-294.5 389.48,-290.74 379.39,-287.5 379.57,-294.5"/>
</g>
<!-- system.ruby.network.routers15 -->
<g id="node16" class="node">
<title>system.ruby.network.routers15</title>
<path fill="#cce6fc" stroke="#000000" d="M402.68,-368.89C402.68,-368.89 432.68,-368.89 432.68,-368.89 438.68,-368.89 444.68,-374.89 444.68,-380.89 444.68,-380.89 444.68,-392.89 444.68,-392.89 444.68,-398.89 438.68,-404.89 432.68,-404.89 432.68,-404.89 402.68,-404.89 402.68,-404.89 396.68,-404.89 390.68,-398.89 390.68,-392.89 390.68,-392.89 390.68,-380.89 390.68,-380.89 390.68,-374.89 396.68,-368.89 402.68,-368.89"/>
<text text-anchor="middle" x="417.68" y="-383.19" font-family="Arial" font-size="14.00" fill="#000000">R 15</text>
</g>
<!-- system.ruby.network.routers11&#45;&#45;system.ruby.network.routers15 -->
<g id="edge24" class="edge">
<title>system.ruby.network.routers11&#45;&#45;system.ruby.network.routers15</title>
<path fill="none" stroke="#042d50" d="M348.39,-392.56C358.25,-391.76 369.57,-390.83 380.17,-389.96"/>
<polygon fill="#042d50" stroke="#042d50" points="380.76,-393.43 390.44,-389.12 380.19,-386.45 380.76,-393.43"/>
</g>
<!-- system.ruby.network.routers12&#45;&#45;system.ruby.network.routers13 -->
<g id="edge10" class="edge">
<title>system.ruby.network.routers12&#45;&#45;system.ruby.network.routers13</title>
<path fill="none" stroke="#042d50" d="M407.22,-118.83C408.4,-132.53 410.03,-151.52 411.38,-167.19"/>
<polygon fill="#042d50" stroke="#042d50" points="407.91,-167.75 412.26,-177.41 414.89,-167.15 407.91,-167.75"/>
</g>
<!-- system.ruby.network.routers13&#45;&#45;system.ruby.network.routers14 -->
<g id="edge11" class="edge">
<title>system.ruby.network.routers13&#45;&#45;system.ruby.network.routers14</title>
<path fill="none" stroke="#042d50" d="M414.36,-213.9C414.74,-227.47 415.28,-246.26 415.73,-261.78"/>
<polygon fill="#042d50" stroke="#042d50" points="412.23,-262 416.02,-271.9 419.23,-261.8 412.23,-262"/>
</g>
<!-- system.ruby.network.routers14&#45;&#45;system.ruby.network.routers15 -->
<g id="edge12" class="edge">
<title>system.ruby.network.routers14&#45;&#45;system.ruby.network.routers15</title>
<path fill="none" stroke="#042d50" d="M416.76,-308.24C416.92,-322.45 417.16,-342.43 417.35,-358.7"/>
<polygon fill="#042d50" stroke="#042d50" points="413.85,-358.8 417.47,-368.75 420.85,-358.71 413.85,-358.8"/>
</g>
<!-- system.ruby.l1_cntrl0 -->
<g id="node17" class="node">
<title>system.ruby.l1_cntrl0</title>
<path fill="#e5bcd0" stroke="#000000" d="M36.63,-27.54C36.63,-27.54 80.63,-27.54 80.63,-27.54 86.63,-27.54 92.63,-33.54 92.63,-39.54 92.63,-39.54 92.63,-51.54 92.63,-51.54 92.63,-57.54 86.63,-63.54 80.63,-63.54 80.63,-63.54 36.63,-63.54 36.63,-63.54 30.63,-63.54 24.63,-57.54 24.63,-51.54 24.63,-51.54 24.63,-39.54 24.63,-39.54 24.63,-33.54 30.63,-27.54 36.63,-27.54"/>
<text text-anchor="middle" x="58.63" y="-41.84" font-family="Arial" font-size="14.00" fill="#000000">l1_cntrl0</text>
</g>
<!-- system.ruby.l1_cntrl0&#45;&#45;system.ruby.network.routers00 -->
<g id="edge25" class="edge">
<title>system.ruby.l1_cntrl0&#45;&#45;system.ruby.network.routers00</title>
<path fill="none" stroke="#381526" d="M84.43,-70.86C87.44,-73.81 90.51,-76.83 93.52,-79.78"/>
<polygon fill="#381526" stroke="#381526" points="86.71,-68.2 77.12,-63.69 81.81,-73.19 86.71,-68.2"/>
<polygon fill="#381526" stroke="#381526" points="91.2,-82.41 100.79,-86.92 96.11,-77.42 91.2,-82.41"/>
</g>
<!-- system.ruby.l1_cntrl1 -->
<g id="node18" class="node">
<title>system.ruby.l1_cntrl1</title>
<path fill="#e5bcd0" stroke="#000000" d="M15.76,-193.13C15.76,-193.13 59.76,-193.13 59.76,-193.13 65.76,-193.13 71.76,-199.13 71.76,-205.13 71.76,-205.13 71.76,-217.13 71.76,-217.13 71.76,-223.13 65.76,-229.13 59.76,-229.13 59.76,-229.13 15.76,-229.13 15.76,-229.13 9.76,-229.13 3.76,-223.13 3.76,-217.13 3.76,-217.13 3.76,-205.13 3.76,-205.13 3.76,-199.13 9.76,-193.13 15.76,-193.13"/>
<text text-anchor="middle" x="37.76" y="-207.43" font-family="Arial" font-size="14.00" fill="#000000">l1_cntrl1</text>
</g>
<!-- system.ruby.l1_cntrl1&#45;&#45;system.ruby.network.routers01 -->
<g id="edge26" class="edge">
<title>system.ruby.l1_cntrl1&#45;&#45;system.ruby.network.routers01</title>
<path fill="none" stroke="#381526" d="M81.95,-206.04C82.45,-205.99 82.95,-205.93 83.45,-205.87"/>
<polygon fill="#381526" stroke="#381526" points="81.55,-202.57 72.01,-207.19 82.35,-209.52 81.55,-202.57"/>
<polygon fill="#381526" stroke="#381526" points="84.18,-209.31 93.72,-204.69 83.38,-202.36 84.18,-209.31"/>
</g>
<!-- system.ruby.l1_cntrl2 -->
<g id="node19" class="node">
<title>system.ruby.l1_cntrl2</title>
<path fill="#e5bcd0" stroke="#000000" d="M18.06,-282.72C18.06,-282.72 62.06,-282.72 62.06,-282.72 68.06,-282.72 74.06,-288.72 74.06,-294.72 74.06,-294.72 74.06,-306.72 74.06,-306.72 74.06,-312.72 68.06,-318.72 62.06,-318.72 62.06,-318.72 18.06,-318.72 18.06,-318.72 12.06,-318.72 6.06,-312.72 6.06,-306.72 6.06,-306.72 6.06,-294.72 6.06,-294.72 6.06,-288.72 12.06,-282.72 18.06,-282.72"/>
<text text-anchor="middle" x="40.06" y="-297.02" font-family="Arial" font-size="14.00" fill="#000000">l1_cntrl2</text>
</g>
<!-- system.ruby.l1_cntrl2&#45;&#45;system.ruby.network.routers02 -->
<g id="edge27" class="edge">
<title>system.ruby.l1_cntrl2&#45;&#45;system.ruby.network.routers02</title>
<path fill="none" stroke="#381526" d="M84.15,-298.66C84.95,-298.62 85.76,-298.58 86.56,-298.55"/>
<polygon fill="#381526" stroke="#381526" points="83.98,-295.16 74.16,-299.12 84.31,-302.15 83.98,-295.16"/>
<polygon fill="#381526" stroke="#381526" points="86.93,-302.03 96.76,-298.07 86.6,-295.04 86.93,-302.03"/>
</g>
<!-- system.ruby.l1_cntrl3 -->
<g id="node20" class="node">
<title>system.ruby.l1_cntrl3</title>
<path fill="#e5bcd0" stroke="#000000" d="M69.06,-453.98C69.06,-453.98 113.06,-453.98 113.06,-453.98 119.06,-453.98 125.06,-459.98 125.06,-465.98 125.06,-465.98 125.06,-477.98 125.06,-477.98 125.06,-483.98 119.06,-489.98 113.06,-489.98 113.06,-489.98 69.06,-489.98 69.06,-489.98 63.06,-489.98 57.06,-483.98 57.06,-477.98 57.06,-477.98 57.06,-465.98 57.06,-465.98 57.06,-459.98 63.06,-453.98 69.06,-453.98"/>
<text text-anchor="middle" x="91.06" y="-468.28" font-family="Arial" font-size="14.00" fill="#000000">l1_cntrl3</text>
</g>
<!-- system.ruby.l1_cntrl3&#45;&#45;system.ruby.network.routers03 -->
<g id="edge28" class="edge">
<title>system.ruby.l1_cntrl3&#45;&#45;system.ruby.network.routers03</title>
<path fill="none" stroke="#381526" d="M104.51,-444.71C108.34,-436.96 112.5,-428.53 116.31,-420.8"/>
<polygon fill="#381526" stroke="#381526" points="101.3,-443.32 100.01,-453.84 107.57,-446.42 101.3,-443.32"/>
<polygon fill="#381526" stroke="#381526" points="119.46,-422.32 120.75,-411.81 113.18,-419.23 119.46,-422.32"/>
</g>
<!-- system.ruby.l1_cntrl4 -->
<g id="node21" class="node">
<title>system.ruby.l1_cntrl4</title>
<path fill="#e5bcd0" stroke="#000000" d="M164.43,-12.27C164.43,-12.27 208.43,-12.27 208.43,-12.27 214.43,-12.27 220.43,-18.27 220.43,-24.27 220.43,-24.27 220.43,-36.27 220.43,-36.27 220.43,-42.27 214.43,-48.27 208.43,-48.27 208.43,-48.27 164.43,-48.27 164.43,-48.27 158.43,-48.27 152.43,-42.27 152.43,-36.27 152.43,-36.27 152.43,-24.27 152.43,-24.27 152.43,-18.27 158.43,-12.27 164.43,-12.27"/>
<text text-anchor="middle" x="186.43" y="-26.57" font-family="Arial" font-size="14.00" fill="#000000">l1_cntrl4</text>
</g>
<!-- system.ruby.l1_cntrl4&#45;&#45;system.ruby.network.routers04 -->
<g id="edge29" class="edge">
<title>system.ruby.l1_cntrl4&#45;&#45;system.ruby.network.routers04</title>
<path fill="none" stroke="#381526" d="M197.66,-58.03C200.17,-64.23 202.83,-70.81 205.34,-77"/>
<polygon fill="#381526" stroke="#381526" points="200.84,-56.56 193.84,-48.6 194.35,-59.18 200.84,-56.56"/>
<polygon fill="#381526" stroke="#381526" points="202.11,-78.35 209.1,-86.3 208.59,-75.72 202.11,-78.35"/>
</g>
<!-- system.ruby.l1_cntrl5 -->
<g id="node22" class="node">
<title>system.ruby.l1_cntrl5</title>
<path fill="#e5bcd0" stroke="#000000" d="M171.8,-136.9C171.8,-136.9 215.8,-136.9 215.8,-136.9 221.8,-136.9 227.8,-142.9 227.8,-148.9 227.8,-148.9 227.8,-160.9 227.8,-160.9 227.8,-166.9 221.8,-172.9 215.8,-172.9 215.8,-172.9 171.8,-172.9 171.8,-172.9 165.8,-172.9 159.8,-166.9 159.8,-160.9 159.8,-160.9 159.8,-148.9 159.8,-148.9 159.8,-142.9 165.8,-136.9 171.8,-136.9"/>
<text text-anchor="middle" x="193.8" y="-151.2" font-family="Arial" font-size="14.00" fill="#000000">l1_cntrl5</text>
</g>
<!-- system.ruby.l1_cntrl5&#45;&#45;system.ruby.network.routers05 -->
<g id="edge30" class="edge">
<title>system.ruby.l1_cntrl5&#45;&#45;system.ruby.network.routers05</title>
<path fill="none" stroke="#381526" d="M210.36,-181.74C210.44,-181.89 210.53,-182.03 210.62,-182.17"/>
<polygon fill="#381526" stroke="#381526" points="213.16,-179.63 204.94,-172.95 207.21,-183.3 213.16,-179.63"/>
<polygon fill="#381526" stroke="#381526" points="204.23,-178.48 212.46,-185.15 210.19,-174.81 204.23,-178.48"/>
</g>
<!-- system.ruby.l1_cntrl6 -->
<g id="node23" class="node">
<title>system.ruby.l1_cntrl6</title>
<path fill="#e5bcd0" stroke="#000000" d="M182.18,-332.04C182.18,-332.04 226.18,-332.04 226.18,-332.04 232.18,-332.04 238.18,-338.04 238.18,-344.04 238.18,-344.04 238.18,-356.04 238.18,-356.04 238.18,-362.04 232.18,-368.04 226.18,-368.04 226.18,-368.04 182.18,-368.04 182.18,-368.04 176.18,-368.04 170.18,-362.04 170.18,-356.04 170.18,-356.04 170.18,-344.04 170.18,-344.04 170.18,-338.04 176.18,-332.04 182.18,-332.04"/>
<text text-anchor="middle" x="204.18" y="-346.34" font-family="Arial" font-size="14.00" fill="#000000">l1_cntrl6</text>
</g>
<!-- system.ruby.l1_cntrl6&#45;&#45;system.ruby.network.routers06 -->
<g id="edge31" class="edge">
<title>system.ruby.l1_cntrl6&#45;&#45;system.ruby.network.routers06</title>
<path fill="none" stroke="#381526" d="M214.82,-322.57C214.86,-322.48 214.89,-322.39 214.93,-322.29"/>
<polygon fill="#381526" stroke="#381526" points="211.56,-321.31 211.21,-331.9 218.08,-323.84 211.56,-321.31"/>
<polygon fill="#381526" stroke="#381526" points="217.87,-324.4 218.22,-313.81 211.34,-321.87 217.87,-324.4"/>
</g>
<!-- system.ruby.l1_cntrl7 -->
<g id="node24" class="node">
<title>system.ruby.l1_cntrl7</title>
<path fill="#e5bcd0" stroke="#000000" d="M208.31,-462.04C208.31,-462.04 252.31,-462.04 252.31,-462.04 258.31,-462.04 264.31,-468.04 264.31,-474.04 264.31,-474.04 264.31,-486.04 264.31,-486.04 264.31,-492.04 258.31,-498.04 252.31,-498.04 252.31,-498.04 208.31,-498.04 208.31,-498.04 202.31,-498.04 196.31,-492.04 196.31,-486.04 196.31,-486.04 196.31,-474.04 196.31,-474.04 196.31,-468.04 202.31,-462.04 208.31,-462.04"/>
<text text-anchor="middle" x="230.31" y="-476.34" font-family="Arial" font-size="14.00" fill="#000000">l1_cntrl7</text>
</g>
<!-- system.ruby.l1_cntrl7&#45;&#45;system.ruby.network.routers07 -->
<g id="edge32" class="edge">
<title>system.ruby.l1_cntrl7&#45;&#45;system.ruby.network.routers07</title>
<path fill="none" stroke="#381526" d="M229.21,-451.77C228.87,-443.07 228.5,-433.5 228.16,-424.81"/>
<polygon fill="#381526" stroke="#381526" points="225.72,-452.11 229.61,-461.96 232.71,-451.83 225.72,-452.11"/>
<polygon fill="#381526" stroke="#381526" points="231.65,-424.62 227.77,-414.77 224.66,-424.9 231.65,-424.62"/>
</g>
<!-- system.ruby.l1_cntrl8 -->
<g id="node25" class="node">
<title>system.ruby.l1_cntrl8</title>
<path fill="#e5bcd0" stroke="#000000" d="M323.68,-10.51C323.68,-10.51 367.68,-10.51 367.68,-10.51 373.68,-10.51 379.68,-16.51 379.68,-22.51 379.68,-22.51 379.68,-34.51 379.68,-34.51 379.68,-40.51 373.68,-46.51 367.68,-46.51 367.68,-46.51 323.68,-46.51 323.68,-46.51 317.68,-46.51 311.68,-40.51 311.68,-34.51 311.68,-34.51 311.68,-22.51 311.68,-22.51 311.68,-16.51 317.68,-10.51 323.68,-10.51"/>
<text text-anchor="middle" x="345.68" y="-24.81" font-family="Arial" font-size="14.00" fill="#000000">l1_cntrl8</text>
</g>
<!-- system.ruby.l1_cntrl8&#45;&#45;system.ruby.network.routers08 -->
<g id="edge33" class="edge">
<title>system.ruby.l1_cntrl8&#45;&#45;system.ruby.network.routers08</title>
<path fill="none" stroke="#381526" d="M332.29,-55.9C329.24,-62.14 326,-68.77 322.95,-75.02"/>
<polygon fill="#381526" stroke="#381526" points="335.5,-57.31 336.74,-46.79 329.21,-54.24 335.5,-57.31"/>
<polygon fill="#381526" stroke="#381526" points="319.61,-73.87 318.37,-84.39 325.9,-76.95 319.61,-73.87"/>
</g>
<!-- system.ruby.l1_cntrl9 -->
<g id="node26" class="node">
<title>system.ruby.l1_cntrl9</title>
<path fill="#e5bcd0" stroke="#000000" d="M320.09,-131.91C320.09,-131.91 364.09,-131.91 364.09,-131.91 370.09,-131.91 376.09,-137.91 376.09,-143.91 376.09,-143.91 376.09,-155.91 376.09,-155.91 376.09,-161.91 370.09,-167.91 364.09,-167.91 364.09,-167.91 320.09,-167.91 320.09,-167.91 314.09,-167.91 308.09,-161.91 308.09,-155.91 308.09,-155.91 308.09,-143.91 308.09,-143.91 308.09,-137.91 314.09,-131.91 320.09,-131.91"/>
<text text-anchor="middle" x="342.09" y="-146.21" font-family="Arial" font-size="14.00" fill="#000000">l1_cntrl9</text>
</g>
<!-- system.ruby.l1_cntrl9&#45;&#45;system.ruby.network.routers09 -->
<g id="edge34" class="edge">
<title>system.ruby.l1_cntrl9&#45;&#45;system.ruby.network.routers09</title>
<path fill="none" stroke="#381526" d="M326.02,-177.02C325.94,-177.15 325.86,-177.28 325.79,-177.41"/>
<polygon fill="#381526" stroke="#381526" points="329.18,-178.54 331.27,-168.15 323.16,-174.97 329.18,-178.54"/>
<polygon fill="#381526" stroke="#381526" points="324.53,-172.67 322.44,-183.06 330.55,-176.24 324.53,-172.67"/>
</g>
<!-- system.ruby.l1_cntrl10 -->
<g id="node27" class="node">
<title>system.ruby.l1_cntrl10</title>
<path fill="#e5bcd0" stroke="#000000" d="M344.64,-303.71C344.64,-303.71 395.64,-303.71 395.64,-303.71 401.64,-303.71 407.64,-309.71 407.64,-315.71 407.64,-315.71 407.64,-327.71 407.64,-327.71 407.64,-333.71 401.64,-339.71 395.64,-339.71 395.64,-339.71 344.64,-339.71 344.64,-339.71 338.64,-339.71 332.64,-333.71 332.64,-327.71 332.64,-327.71 332.64,-315.71 332.64,-315.71 332.64,-309.71 338.64,-303.71 344.64,-303.71"/>
<text text-anchor="middle" x="370.14" y="-318.01" font-family="Arial" font-size="14.00" fill="#000000">l1_cntrl10</text>
</g>
<!-- system.ruby.l1_cntrl10&#45;&#45;system.ruby.network.routers10 -->
<g id="edge35" class="edge">
<title>system.ruby.l1_cntrl10&#45;&#45;system.ruby.network.routers10</title>
<path fill="none" stroke="#381526" d="M336.72,-303.57C336.7,-303.56 336.68,-303.55 336.66,-303.54"/>
<polygon fill="#381526" stroke="#381526" points="326.39,-301.95 336.85,-303.64 329.73,-295.79 326.39,-301.95"/>
<polygon fill="#381526" stroke="#381526" points="347.06,-305.2 336.59,-303.5 343.71,-311.36 347.06,-305.2"/>
</g>
<!-- system.ruby.l1_cntrl11 -->
<g id="node28" class="node">
<title>system.ruby.l1_cntrl11</title>
<path fill="#e5bcd0" stroke="#000000" d="M297.86,-460.48C297.86,-460.48 347.86,-460.48 347.86,-460.48 353.86,-460.48 359.86,-466.48 359.86,-472.48 359.86,-472.48 359.86,-484.48 359.86,-484.48 359.86,-490.48 353.86,-496.48 347.86,-496.48 347.86,-496.48 297.86,-496.48 297.86,-496.48 291.86,-496.48 285.86,-490.48 285.86,-484.48 285.86,-484.48 285.86,-472.48 285.86,-472.48 285.86,-466.48 291.86,-460.48 297.86,-460.48"/>
<text text-anchor="middle" x="322.86" y="-474.78" font-family="Arial" font-size="14.00" fill="#000000">l1_cntrl11</text>
</g>
<!-- system.ruby.l1_cntrl11&#45;&#45;system.ruby.network.routers11 -->
<g id="edge36" class="edge">
<title>system.ruby.l1_cntrl11&#45;&#45;system.ruby.network.routers11</title>
<path fill="none" stroke="#381526" d="M322.33,-450.08C322.16,-441.34 321.98,-431.72 321.82,-423"/>
<polygon fill="#381526" stroke="#381526" points="318.83,-450.38 322.52,-460.32 325.83,-450.25 318.83,-450.38"/>
<polygon fill="#381526" stroke="#381526" points="325.31,-422.84 321.63,-412.91 318.31,-422.97 325.31,-422.84"/>
</g>
<!-- system.ruby.l1_cntrl12 -->
<g id="node29" class="node">
<title>system.ruby.l1_cntrl12</title>
<path fill="#e5bcd0" stroke="#000000" d="M417.93,-3.19C417.93,-3.19 468.93,-3.19 468.93,-3.19 474.93,-3.19 480.93,-9.19 480.93,-15.19 480.93,-15.19 480.93,-27.19 480.93,-27.19 480.93,-33.19 474.93,-39.19 468.93,-39.19 468.93,-39.19 417.93,-39.19 417.93,-39.19 411.93,-39.19 405.93,-33.19 405.93,-27.19 405.93,-27.19 405.93,-15.19 405.93,-15.19 405.93,-9.19 411.93,-3.19 417.93,-3.19"/>
<text text-anchor="middle" x="443.43" y="-17.49" font-family="Arial" font-size="14.00" fill="#000000">l1_cntrl12</text>
</g>
<!-- system.ruby.l1_cntrl12&#45;&#45;system.ruby.network.routers12 -->
<g id="edge37" class="edge">
<title>system.ruby.l1_cntrl12&#45;&#45;system.ruby.network.routers12</title>
<path fill="none" stroke="#381526" d="M430.22,-48.9C426.45,-56.81 422.34,-65.42 418.58,-73.3"/>
<polygon fill="#381526" stroke="#381526" points="433.52,-50.11 434.66,-39.57 427.2,-47.09 433.52,-50.11"/>
<polygon fill="#381526" stroke="#381526" points="415.37,-71.91 414.22,-82.45 421.69,-74.93 415.37,-71.91"/>
</g>
<!-- system.ruby.l1_cntrl13 -->
<g id="node30" class="node">
<title>system.ruby.l1_cntrl13</title>
<path fill="#e5bcd0" stroke="#000000" d="M471.82,-175.98C471.82,-175.98 522.82,-175.98 522.82,-175.98 528.82,-175.98 534.82,-181.98 534.82,-187.98 534.82,-187.98 534.82,-199.98 534.82,-199.98 534.82,-205.98 528.82,-211.98 522.82,-211.98 522.82,-211.98 471.82,-211.98 471.82,-211.98 465.82,-211.98 459.82,-205.98 459.82,-199.98 459.82,-199.98 459.82,-187.98 459.82,-187.98 459.82,-181.98 465.82,-175.98 471.82,-175.98"/>
<text text-anchor="middle" x="497.32" y="-190.28" font-family="Arial" font-size="14.00" fill="#000000">l1_cntrl13</text>
</g>
<!-- system.ruby.l1_cntrl13&#45;&#45;system.ruby.network.routers13 -->
<g id="edge38" class="edge">
<title>system.ruby.l1_cntrl13&#45;&#45;system.ruby.network.routers13</title>
<path fill="none" stroke="#381526" d="M449.28,-194.98C449.19,-194.98 449.1,-194.98 449.02,-194.99"/>
<polygon fill="#381526" stroke="#381526" points="449.56,-198.48 459.48,-194.77 449.41,-191.48 449.56,-198.48"/>
<polygon fill="#381526" stroke="#381526" points="450.98,-191.44 441.05,-195.15 451.12,-198.44 450.98,-191.44"/>
</g>
<!-- system.ruby.l1_cntrl14 -->
<g id="node31" class="node">
<title>system.ruby.l1_cntrl14</title>
<path fill="#e5bcd0" stroke="#000000" d="M466.4,-305.46C466.4,-305.46 517.4,-305.46 517.4,-305.46 523.4,-305.46 529.4,-311.46 529.4,-317.46 529.4,-317.46 529.4,-329.46 529.4,-329.46 529.4,-335.46 523.4,-341.46 517.4,-341.46 517.4,-341.46 466.4,-341.46 466.4,-341.46 460.4,-341.46 454.4,-335.46 454.4,-329.46 454.4,-329.46 454.4,-317.46 454.4,-317.46 454.4,-311.46 460.4,-305.46 466.4,-305.46"/>
<text text-anchor="middle" x="491.9" y="-319.76" font-family="Arial" font-size="14.00" fill="#000000">l1_cntrl14</text>
</g>
<!-- system.ruby.l1_cntrl14&#45;&#45;system.ruby.network.routers14 -->
<g id="edge39" class="edge">
<title>system.ruby.l1_cntrl14&#45;&#45;system.ruby.network.routers14</title>
<path fill="none" stroke="#381526" d="M445.03,-302.67C444.92,-302.62 444.81,-302.57 444.71,-302.52"/>
<polygon fill="#381526" stroke="#381526" points="443.66,-305.89 454.22,-306.74 446.5,-299.49 443.66,-305.89"/>
<polygon fill="#381526" stroke="#381526" points="454.31,-302.95 443.75,-302.1 451.47,-309.35 454.31,-302.95"/>
</g>
<!-- system.ruby.l1_cntrl15 -->
<g id="node32" class="node">
<title>system.ruby.l1_cntrl15</title>
<path fill="#e5bcd0" stroke="#000000" d="M435.92,-444.41C435.92,-444.41 486.92,-444.41 486.92,-444.41 492.92,-444.41 498.92,-450.41 498.92,-456.41 498.92,-456.41 498.92,-468.41 498.92,-468.41 498.92,-474.41 492.92,-480.41 486.92,-480.41 486.92,-480.41 435.92,-480.41 435.92,-480.41 429.92,-480.41 423.92,-474.41 423.92,-468.41 423.92,-468.41 423.92,-456.41 423.92,-456.41 423.92,-450.41 429.92,-444.41 435.92,-444.41"/>
<text text-anchor="middle" x="461.42" y="-458.71" font-family="Arial" font-size="14.00" fill="#000000">l1_cntrl15</text>
</g>
<!-- system.ruby.l1_cntrl15&#45;&#45;system.ruby.network.routers15 -->
<g id="edge40" class="edge">
<title>system.ruby.l1_cntrl15&#45;&#45;system.ruby.network.routers15</title>
<path fill="none" stroke="#381526" d="M445.71,-435.29C441.71,-428.37 437.4,-420.94 433.4,-414.02"/>
<polygon fill="#381526" stroke="#381526" points="442.79,-437.23 450.83,-444.13 448.85,-433.72 442.79,-437.23"/>
<polygon fill="#381526" stroke="#381526" points="436.22,-411.9 428.17,-405.01 430.16,-415.41 436.22,-411.9"/>
</g>
<!-- system.ruby.l2_cntrl0 -->
<g id="node33" class="node">
<title>system.ruby.l2_cntrl0</title>
<path fill="#e5bcd0" stroke="#000000" d="M12,-65.96C12,-65.96 56,-65.96 56,-65.96 62,-65.96 68,-71.96 68,-77.96 68,-77.96 68,-89.96 68,-89.96 68,-95.96 62,-101.96 56,-101.96 56,-101.96 12,-101.96 12,-101.96 6,-101.96 0,-95.96 0,-89.96 0,-89.96 0,-77.96 0,-77.96 0,-71.96 6,-65.96 12,-65.96"/>
<text text-anchor="middle" x="34" y="-80.26" font-family="Arial" font-size="14.00" fill="#000000">l2_cntrl0</text>
</g>
<!-- system.ruby.l2_cntrl0&#45;&#45;system.ruby.network.routers00 -->
<g id="edge41" class="edge">
<title>system.ruby.l2_cntrl0&#45;&#45;system.ruby.network.routers00</title>
<path fill="none" stroke="#381526" d="M77.98,-94.8C79.33,-95.13 80.68,-95.47 82.03,-95.8"/>
<polygon fill="#381526" stroke="#381526" points="78.7,-91.37 68.15,-92.38 77.02,-98.17 78.7,-91.37"/>
<polygon fill="#381526" stroke="#381526" points="81.54,-99.28 92.09,-98.28 83.22,-92.49 81.54,-99.28"/>
</g>
<!-- system.ruby.dir_cntrl0 -->
<g id="node34" class="node">
<title>system.ruby.dir_cntrl0</title>
<path fill="#e5bcd0" stroke="#000000" d="M21.89,-156.77C21.89,-156.77 69.89,-156.77 69.89,-156.77 75.89,-156.77 81.89,-162.77 81.89,-168.77 81.89,-168.77 81.89,-180.77 81.89,-180.77 81.89,-186.77 75.89,-192.77 69.89,-192.77 69.89,-192.77 21.89,-192.77 21.89,-192.77 15.89,-192.77 9.89,-186.77 9.89,-180.77 9.89,-180.77 9.89,-168.77 9.89,-168.77 9.89,-162.77 15.89,-156.77 21.89,-156.77"/>
<text text-anchor="middle" x="45.89" y="-171.07" font-family="Arial" font-size="14.00" fill="#000000">dir_cntrl0</text>
</g>
<!-- system.ruby.dir_cntrl0&#45;&#45;system.ruby.network.routers01 -->
<g id="edge42" class="edge">
<title>system.ruby.dir_cntrl0&#45;&#45;system.ruby.network.routers01</title>
<path fill="none" stroke="#381526" d="M91.45,-191.07C91.54,-191.11 91.63,-191.14 91.72,-191.17"/>
<polygon fill="#381526" stroke="#381526" points="92.62,-187.77 82.02,-187.7 90.26,-194.36 92.62,-187.77"/>
<polygon fill="#381526" stroke="#381526" points="82.99,-191.76 93.58,-191.84 85.35,-185.17 82.99,-191.76"/>
</g>
<!-- system.ruby.dir_cntrl1 -->
<g id="node35" class="node">
<title>system.ruby.dir_cntrl1</title>
<path fill="#e5bcd0" stroke="#000000" d="M27.65,-318.9C27.65,-318.9 75.65,-318.9 75.65,-318.9 81.65,-318.9 87.65,-324.9 87.65,-330.9 87.65,-330.9 87.65,-342.9 87.65,-342.9 87.65,-348.9 81.65,-354.9 75.65,-354.9 75.65,-354.9 27.65,-354.9 27.65,-354.9 21.65,-354.9 15.65,-348.9 15.65,-342.9 15.65,-342.9 15.65,-330.9 15.65,-330.9 15.65,-324.9 21.65,-318.9 27.65,-318.9"/>
<text text-anchor="middle" x="51.65" y="-333.2" font-family="Arial" font-size="14.00" fill="#000000">dir_cntrl1</text>
</g>
<!-- system.ruby.dir_cntrl1&#45;&#45;system.ruby.network.routers02 -->
<g id="edge43" class="edge">
<title>system.ruby.dir_cntrl1&#45;&#45;system.ruby.network.routers02</title>
<path fill="none" stroke="#381526" d="M93.47,-313.69C93.59,-313.62 93.72,-313.55 93.84,-313.48"/>
<polygon fill="#381526" stroke="#381526" points="91.43,-310.82 84.39,-318.73 94.83,-316.94 91.43,-310.82"/>
<polygon fill="#381526" stroke="#381526" points="89.41,-319.95 96.45,-312.04 86.01,-313.83 89.41,-319.95"/>
</g>
<!-- system.ruby.dir_cntrl2 -->
<g id="node36" class="node">
<title>system.ruby.dir_cntrl2</title>
<path fill="#e5bcd0" stroke="#000000" d="M29.02,-418.43C29.02,-418.43 77.02,-418.43 77.02,-418.43 83.02,-418.43 89.02,-424.43 89.02,-430.43 89.02,-430.43 89.02,-442.43 89.02,-442.43 89.02,-448.43 83.02,-454.43 77.02,-454.43 77.02,-454.43 29.02,-454.43 29.02,-454.43 23.02,-454.43 17.02,-448.43 17.02,-442.43 17.02,-442.43 17.02,-430.43 17.02,-430.43 17.02,-424.43 23.02,-418.43 29.02,-418.43"/>
<text text-anchor="middle" x="53.02" y="-432.73" font-family="Arial" font-size="14.00" fill="#000000">dir_cntrl2</text>
</g>
<!-- system.ruby.dir_cntrl2&#45;&#45;system.ruby.network.routers03 -->
<g id="edge44" class="edge">
<title>system.ruby.dir_cntrl2&#45;&#45;system.ruby.network.routers03</title>
<path fill="none" stroke="#381526" d="M94.43,-413.37C94.6,-413.28 94.76,-413.19 94.92,-413.1"/>
<polygon fill="#381526" stroke="#381526" points="92.56,-410.41 85.52,-418.34 95.96,-416.53 92.56,-410.41"/>
<polygon fill="#381526" stroke="#381526" points="95.15,-416.98 102.18,-409.06 91.74,-410.87 95.15,-416.98"/>
</g>
<!-- system.ruby.dir_cntrl3 -->
<g id="node37" class="node">
<title>system.ruby.dir_cntrl3</title>
<path fill="#e5bcd0" stroke="#000000" d="M198.11,-3.34C198.11,-3.34 246.11,-3.34 246.11,-3.34 252.11,-3.34 258.11,-9.34 258.11,-15.34 258.11,-15.34 258.11,-27.34 258.11,-27.34 258.11,-33.34 252.11,-39.34 246.11,-39.34 246.11,-39.34 198.11,-39.34 198.11,-39.34 192.11,-39.34 186.11,-33.34 186.11,-27.34 186.11,-27.34 186.11,-15.34 186.11,-15.34 186.11,-9.34 192.11,-3.34 198.11,-3.34"/>
<text text-anchor="middle" x="222.11" y="-17.64" font-family="Arial" font-size="14.00" fill="#000000">dir_cntrl3</text>
</g>
<!-- system.ruby.dir_cntrl3&#45;&#45;system.ruby.network.routers04 -->
<g id="edge45" class="edge">
<title>system.ruby.dir_cntrl3&#45;&#45;system.ruby.network.routers04</title>
<path fill="none" stroke="#381526" d="M220.19,-49.45C219.6,-58.07 218.95,-67.54 218.36,-76.16"/>
<polygon fill="#381526" stroke="#381526" points="223.69,-49.58 220.88,-39.37 216.7,-49.11 223.69,-49.58"/>
<polygon fill="#381526" stroke="#381526" points="214.87,-75.93 217.68,-86.14 221.86,-76.4 214.87,-75.93"/>
</g>
<!-- system.ruby.dir_cntrl4 -->
<g id="node38" class="node">
<title>system.ruby.dir_cntrl4</title>
<path fill="#e5bcd0" stroke="#000000" d="M149.45,-182.81C149.45,-182.81 197.45,-182.81 197.45,-182.81 203.45,-182.81 209.45,-188.81 209.45,-194.81 209.45,-194.81 209.45,-206.81 209.45,-206.81 209.45,-212.81 203.45,-218.81 197.45,-218.81 197.45,-218.81 149.45,-218.81 149.45,-218.81 143.45,-218.81 137.45,-212.81 137.45,-206.81 137.45,-206.81 137.45,-194.81 137.45,-194.81 137.45,-188.81 143.45,-182.81 149.45,-182.81"/>
<text text-anchor="middle" x="173.45" y="-197.11" font-family="Arial" font-size="14.00" fill="#000000">dir_cntrl4</text>
</g>
<!-- system.ruby.dir_cntrl4&#45;&#45;system.ruby.network.routers05 -->
<g id="edge46" class="edge">
<title>system.ruby.dir_cntrl4&#45;&#45;system.ruby.network.routers05</title>
<path fill="none" stroke="#381526" d="M209.89,-202.68C209.92,-202.68 209.96,-202.68 209.99,-202.68"/>
<polygon fill="#381526" stroke="#381526" points="219.88,-199.69 209.71,-202.67 219.51,-206.68 219.88,-199.69"/>
<polygon fill="#381526" stroke="#381526" points="199.91,-205.66 210.08,-202.69 200.27,-198.67 199.91,-205.66"/>
</g>
<!-- system.ruby.dir_cntrl5 -->
<g id="node39" class="node">
<title>system.ruby.dir_cntrl5</title>
<path fill="#e5bcd0" stroke="#000000" d="M149.88,-303.01C149.88,-303.01 197.88,-303.01 197.88,-303.01 203.88,-303.01 209.88,-309.01 209.88,-315.01 209.88,-315.01 209.88,-327.01 209.88,-327.01 209.88,-333.01 203.88,-339.01 197.88,-339.01 197.88,-339.01 149.88,-339.01 149.88,-339.01 143.88,-339.01 137.88,-333.01 137.88,-327.01 137.88,-327.01 137.88,-315.01 137.88,-315.01 137.88,-309.01 143.88,-303.01 149.88,-303.01"/>
<text text-anchor="middle" x="173.88" y="-317.31" font-family="Arial" font-size="14.00" fill="#000000">dir_cntrl5</text>
</g>
<!-- system.ruby.dir_cntrl5&#45;&#45;system.ruby.network.routers06 -->
<g id="edge47" class="edge">
<title>system.ruby.dir_cntrl5&#45;&#45;system.ruby.network.routers06</title>
<path fill="none" stroke="#381526" d="M210.34,-302.96C210.37,-302.94 210.41,-302.93 210.44,-302.91"/>
<polygon fill="#381526" stroke="#381526" points="217.55,-295.48 210.14,-303.06 220.66,-301.76 217.55,-295.48"/>
<polygon fill="#381526" stroke="#381526" points="203.13,-310.44 210.54,-302.86 200.02,-304.17 203.13,-310.44"/>
</g>
<!-- system.ruby.dir_cntrl6 -->
<g id="node40" class="node">
<title>system.ruby.dir_cntrl6</title>
<path fill="#e5bcd0" stroke="#000000" d="M168.14,-453.79C168.14,-453.79 216.14,-453.79 216.14,-453.79 222.14,-453.79 228.14,-459.79 228.14,-465.79 228.14,-465.79 228.14,-477.79 228.14,-477.79 228.14,-483.79 222.14,-489.79 216.14,-489.79 216.14,-489.79 168.14,-489.79 168.14,-489.79 162.14,-489.79 156.14,-483.79 156.14,-477.79 156.14,-477.79 156.14,-465.79 156.14,-465.79 156.14,-459.79 162.14,-453.79 168.14,-453.79"/>
<text text-anchor="middle" x="192.14" y="-468.09" font-family="Arial" font-size="14.00" fill="#000000">dir_cntrl6</text>
</g>
<!-- system.ruby.dir_cntrl6&#45;&#45;system.ruby.network.routers07 -->
<g id="edge48" class="edge">
<title>system.ruby.dir_cntrl6&#45;&#45;system.ruby.network.routers07</title>
<path fill="none" stroke="#381526" d="M204.83,-444.53C207.93,-437.86 211.25,-430.73 214.35,-424.06"/>
<polygon fill="#381526" stroke="#381526" points="201.64,-443.08 200.6,-453.62 207.99,-446.03 201.64,-443.08"/>
<polygon fill="#381526" stroke="#381526" points="217.64,-425.27 218.69,-414.73 211.3,-422.32 217.64,-425.27"/>
</g>
<!-- system.ruby.dir_cntrl7 -->
<g id="node41" class="node">
<title>system.ruby.dir_cntrl7</title>
<path fill="#e5bcd0" stroke="#000000" d="M285.28,-0.5C285.28,-0.5 333.28,-0.5 333.28,-0.5 339.28,-0.5 345.28,-6.5 345.28,-12.5 345.28,-12.5 345.28,-24.5 345.28,-24.5 345.28,-30.5 339.28,-36.5 333.28,-36.5 333.28,-36.5 285.28,-36.5 285.28,-36.5 279.28,-36.5 273.28,-30.5 273.28,-24.5 273.28,-24.5 273.28,-12.5 273.28,-12.5 273.28,-6.5 279.28,-0.5 285.28,-0.5"/>
<text text-anchor="middle" x="309.28" y="-14.8" font-family="Arial" font-size="14.00" fill="#000000">dir_cntrl7</text>
</g>
<!-- system.ruby.dir_cntrl7&#45;&#45;system.ruby.network.routers08 -->
<g id="edge49" class="edge">
<title>system.ruby.dir_cntrl7&#45;&#45;system.ruby.network.routers08</title>
<path fill="none" stroke="#381526" d="M309.37,-46.99C309.39,-55.76 309.42,-65.4 309.45,-74.16"/>
<polygon fill="#381526" stroke="#381526" points="312.87,-46.71 309.33,-36.72 305.87,-46.73 312.87,-46.71"/>
<polygon fill="#381526" stroke="#381526" points="305.95,-74.29 309.48,-84.28 312.95,-74.27 305.95,-74.29"/>
</g>
<!-- system.ruby.dir_cntrl8 -->
<g id="node42" class="node">
<title>system.ruby.dir_cntrl8</title>
<path fill="#e5bcd0" stroke="#000000" d="M339.02,-176.58C339.02,-176.58 387.02,-176.58 387.02,-176.58 393.02,-176.58 399.02,-182.58 399.02,-188.58 399.02,-188.58 399.02,-200.58 399.02,-200.58 399.02,-206.58 393.02,-212.58 387.02,-212.58 387.02,-212.58 339.02,-212.58 339.02,-212.58 333.02,-212.58 327.02,-206.58 327.02,-200.58 327.02,-200.58 327.02,-188.58 327.02,-188.58 327.02,-182.58 333.02,-176.58 339.02,-176.58"/>
<text text-anchor="middle" x="363.02" y="-190.88" font-family="Arial" font-size="14.00" fill="#000000">dir_cntrl8</text>
</g>
<!-- system.ruby.dir_cntrl8&#45;&#45;system.ruby.network.routers09 -->
<g id="edge50" class="edge">
<title>system.ruby.dir_cntrl8&#45;&#45;system.ruby.network.routers09</title>
<path fill="none" stroke="#381526" d="M326.59,-199.31C326.56,-199.31 326.52,-199.31 326.49,-199.32"/>
<polygon fill="#381526" stroke="#381526" points="317.32,-204.04 326.79,-199.28 316.42,-197.1 317.32,-204.04"/>
<polygon fill="#381526" stroke="#381526" points="335.86,-194.56 326.39,-199.33 336.76,-201.51 335.86,-194.56"/>
</g>
<!-- system.ruby.dir_cntrl9 -->
<g id="node43" class="node">
<title>system.ruby.dir_cntrl9</title>
<path fill="#e5bcd0" stroke="#000000" d="M307.13,-326.39C307.13,-326.39 355.13,-326.39 355.13,-326.39 361.13,-326.39 367.13,-332.39 367.13,-338.39 367.13,-338.39 367.13,-350.39 367.13,-350.39 367.13,-356.39 361.13,-362.39 355.13,-362.39 355.13,-362.39 307.13,-362.39 307.13,-362.39 301.13,-362.39 295.13,-356.39 295.13,-350.39 295.13,-350.39 295.13,-338.39 295.13,-338.39 295.13,-332.39 301.13,-326.39 307.13,-326.39"/>
<text text-anchor="middle" x="331.13" y="-340.69" font-family="Arial" font-size="14.00" fill="#000000">dir_cntrl9</text>
</g>
<!-- system.ruby.dir_cntrl9&#45;&#45;system.ruby.network.routers10 -->
<g id="edge51" class="edge">
<title>system.ruby.dir_cntrl9&#45;&#45;system.ruby.network.routers10</title>
<path fill="none" stroke="#381526" d="M323.33,-316.61C323.3,-316.49 323.27,-316.36 323.23,-316.24"/>
<polygon fill="#381526" stroke="#381526" points="319.98,-317.62 326.05,-326.3 326.72,-315.73 319.98,-317.62"/>
<polygon fill="#381526" stroke="#381526" points="327.78,-319.51 321.71,-310.83 321.04,-321.41 327.78,-319.51"/>
</g>
<!-- system.ruby.dir_cntrl10 -->
<g id="node44" class="node">
<title>system.ruby.dir_cntrl10</title>
<path fill="#e5bcd0" stroke="#000000" d="M332.53,-448.71C332.53,-448.71 388.53,-448.71 388.53,-448.71 394.53,-448.71 400.53,-454.71 400.53,-460.71 400.53,-460.71 400.53,-472.71 400.53,-472.71 400.53,-478.71 394.53,-484.71 388.53,-484.71 388.53,-484.71 332.53,-484.71 332.53,-484.71 326.53,-484.71 320.53,-478.71 320.53,-472.71 320.53,-472.71 320.53,-460.71 320.53,-460.71 320.53,-454.71 326.53,-448.71 332.53,-448.71"/>
<text text-anchor="middle" x="360.53" y="-463.01" font-family="Arial" font-size="14.00" fill="#000000">dir_cntrl10</text>
</g>
<!-- system.ruby.dir_cntrl10&#45;&#45;system.ruby.network.routers11 -->
<g id="edge52" class="edge">
<title>system.ruby.dir_cntrl10&#45;&#45;system.ruby.network.routers11</title>
<path fill="none" stroke="#381526" d="M345.8,-439.71C342.71,-434.05 339.44,-428.06 336.33,-422.37"/>
<polygon fill="#381526" stroke="#381526" points="342.76,-441.46 350.62,-448.56 348.91,-438.1 342.76,-441.46"/>
<polygon fill="#381526" stroke="#381526" points="339.18,-420.28 331.32,-413.18 333.04,-423.63 339.18,-420.28"/>
</g>
<!-- system.ruby.dir_cntrl11 -->
<g id="node45" class="node">
<title>system.ruby.dir_cntrl11</title>
<path fill="#e5bcd0" stroke="#000000" d="M453.97,-39.04C453.97,-39.04 508.97,-39.04 508.97,-39.04 514.97,-39.04 520.97,-45.04 520.97,-51.04 520.97,-51.04 520.97,-63.04 520.97,-63.04 520.97,-69.04 514.97,-75.04 508.97,-75.04 508.97,-75.04 453.97,-75.04 453.97,-75.04 447.97,-75.04 441.97,-69.04 441.97,-63.04 441.97,-63.04 441.97,-51.04 441.97,-51.04 441.97,-45.04 447.97,-39.04 453.97,-39.04"/>
<text text-anchor="middle" x="481.47" y="-53.34" font-family="Arial" font-size="14.00" fill="#000000">dir_cntrl11</text>
</g>
<!-- system.ruby.dir_cntrl11&#45;&#45;system.ruby.network.routers12 -->
<g id="edge53" class="edge">
<title>system.ruby.dir_cntrl11&#45;&#45;system.ruby.network.routers12</title>
<path fill="none" stroke="#381526" d="M440.88,-80.28C440.79,-80.33 440.7,-80.38 440.62,-80.43"/>
<polygon fill="#381526" stroke="#381526" points="442.81,-83.21 449.75,-75.2 439.33,-77.13 442.81,-83.21"/>
<polygon fill="#381526" stroke="#381526" points="439.6,-76.98 432.66,-84.99 443.07,-83.06 439.6,-76.98"/>
</g>
<!-- system.ruby.dir_cntrl12 -->
<g id="node46" class="node">
<title>system.ruby.dir_cntrl12</title>
<path fill="#e5bcd0" stroke="#000000" d="M457.6,-138.54C457.6,-138.54 513.6,-138.54 513.6,-138.54 519.6,-138.54 525.6,-144.54 525.6,-150.54 525.6,-150.54 525.6,-162.54 525.6,-162.54 525.6,-168.54 519.6,-174.54 513.6,-174.54 513.6,-174.54 457.6,-174.54 457.6,-174.54 451.6,-174.54 445.6,-168.54 445.6,-162.54 445.6,-162.54 445.6,-150.54 445.6,-150.54 445.6,-144.54 451.6,-138.54 457.6,-138.54"/>
<text text-anchor="middle" x="485.6" y="-152.84" font-family="Arial" font-size="14.00" fill="#000000">dir_cntrl12</text>
</g>
<!-- system.ruby.dir_cntrl12&#45;&#45;system.ruby.network.routers13 -->
<g id="edge54" class="edge">
<title>system.ruby.dir_cntrl12&#45;&#45;system.ruby.network.routers13</title>
<path fill="none" stroke="#381526" d="M443.33,-179.62C443.22,-179.67 443.12,-179.73 443.02,-179.79"/>
<polygon fill="#381526" stroke="#381526" points="445.14,-182.62 452.24,-174.75 441.78,-176.47 445.14,-182.62"/>
<polygon fill="#381526" stroke="#381526" points="447.97,-173.09 440.87,-180.96 451.33,-179.24 447.97,-173.09"/>
</g>
<!-- system.ruby.dir_cntrl13 -->
<g id="node47" class="node">
<title>system.ruby.dir_cntrl13</title>
<path fill="#e5bcd0" stroke="#000000" d="M472.17,-267.41C472.17,-267.41 528.17,-267.41 528.17,-267.41 534.17,-267.41 540.17,-273.41 540.17,-279.41 540.17,-279.41 540.17,-291.41 540.17,-291.41 540.17,-297.41 534.17,-303.41 528.17,-303.41 528.17,-303.41 472.17,-303.41 472.17,-303.41 466.17,-303.41 460.17,-297.41 460.17,-291.41 460.17,-291.41 460.17,-279.41 460.17,-279.41 460.17,-273.41 466.17,-267.41 472.17,-267.41"/>
<text text-anchor="middle" x="500.17" y="-281.71" font-family="Arial" font-size="14.00" fill="#000000">dir_cntrl13</text>
</g>
<!-- system.ruby.dir_cntrl13&#45;&#45;system.ruby.network.routers14 -->
<g id="edge55" class="edge">
<title>system.ruby.dir_cntrl13&#45;&#45;system.ruby.network.routers14</title>
<path fill="none" stroke="#381526" d="M449.79,-288.19C449.66,-288.2 449.53,-288.21 449.4,-288.21"/>
<polygon fill="#381526" stroke="#381526" points="450.03,-291.68 459.82,-287.64 449.65,-284.69 450.03,-291.68"/>
<polygon fill="#381526" stroke="#381526" points="453.36,-284.49 443.57,-288.53 453.74,-291.48 453.36,-284.49"/>
</g>
<!-- system.ruby.dir_cntrl14 -->
<g id="node48" class="node">
<title>system.ruby.dir_cntrl14</title>
<path fill="#e5bcd0" stroke="#000000" d="M469.15,-405.09C469.15,-405.09 525.15,-405.09 525.15,-405.09 531.15,-405.09 537.15,-411.09 537.15,-417.09 537.15,-417.09 537.15,-429.09 537.15,-429.09 537.15,-435.09 531.15,-441.09 525.15,-441.09 525.15,-441.09 469.15,-441.09 469.15,-441.09 463.15,-441.09 457.15,-435.09 457.15,-429.09 457.15,-429.09 457.15,-417.09 457.15,-417.09 457.15,-411.09 463.15,-405.09 469.15,-405.09"/>
<text text-anchor="middle" x="497.15" y="-419.39" font-family="Arial" font-size="14.00" fill="#000000">dir_cntrl14</text>
</g>
<!-- system.ruby.dir_cntrl14&#45;&#45;system.ruby.network.routers15 -->
<g id="edge56" class="edge">
<title>system.ruby.dir_cntrl14&#45;&#45;system.ruby.network.routers15</title>
<path fill="none" stroke="#381526" d="M448.07,-400.73C447.94,-400.67 447.81,-400.61 447.68,-400.56"/>
<polygon fill="#381526" stroke="#381526" points="446.87,-404.03 457.42,-404.99 449.77,-397.66 446.87,-404.03"/>
<polygon fill="#381526" stroke="#381526" points="455.58,-400.31 445.03,-399.35 452.68,-406.68 455.58,-400.31"/>
</g>
<!-- system.ruby.dir_cntrl15 -->
<g id="node49" class="node">
<title>system.ruby.dir_cntrl15</title>
<path fill="#e5bcd0" stroke="#000000" d="M68.45,-2.26C68.45,-2.26 124.45,-2.26 124.45,-2.26 130.45,-2.26 136.45,-8.26 136.45,-14.26 136.45,-14.26 136.45,-26.26 136.45,-26.26 136.45,-32.26 130.45,-38.26 124.45,-38.26 124.45,-38.26 68.45,-38.26 68.45,-38.26 62.45,-38.26 56.45,-32.26 56.45,-26.26 56.45,-26.26 56.45,-14.26 56.45,-14.26 56.45,-8.26 62.45,-2.26 68.45,-2.26"/>
<text text-anchor="middle" x="96.45" y="-16.56" font-family="Arial" font-size="14.00" fill="#000000">dir_cntrl15</text>
</g>
<!-- system.ruby.dir_cntrl15&#45;&#45;system.ruby.network.routers00 -->
<g id="edge57" class="edge">
<title>system.ruby.dir_cntrl15&#45;&#45;system.ruby.network.routers00</title>
<path fill="none" stroke="#381526" d="M103.98,-48.31C106.45,-57.55 109.21,-67.82 111.68,-77.04"/>
<polygon fill="#381526" stroke="#381526" points="107.35,-47.39 101.38,-38.64 100.59,-49.21 107.35,-47.39"/>
<polygon fill="#381526" stroke="#381526" points="108.36,-78.16 114.33,-86.91 115.12,-76.34 108.36,-78.16"/>
</g>
</g>
</svg>
