<?xml version="1.0" encoding="UTF-8" standalone="no"?>
<!DOCTYPE svg PUBLIC "-//W3C//DTD SVG 1.1//EN"
 "http://www.w3.org/Graphics/SVG/1.1/DTD/svg11.dtd">
<!-- Generated by graphviz version 2.43.0 (0)
 -->
<!-- Title: G Pages: 1 -->
<svg width="320pt" height="300pt"
 viewBox="0.00 0.00 319.90 300.01" xmlns="http://www.w3.org/2000/svg" xmlns:xlink="http://www.w3.org/1999/xlink">
<g id="graph0" class="graph" transform="scale(1 1) rotate(0) translate(4 296.01)">
<title>G</title>
<polygon fill="white" stroke="transparent" points="-4,4 -4,-296.01 315.9,-296.01 315.9,4 -4,4"/>
<!-- system.ruby.network.routers0 -->
<g id="node1" class="node">
<title>system.ruby.network.routers0</title>
<path fill="#cce6fc" stroke="#000000" d="M216.1,-51.8C216.1,-51.8 246.1,-51.8 246.1,-51.8 252.1,-51.8 258.1,-57.8 258.1,-63.8 258.1,-63.8 258.1,-75.8 258.1,-75.8 258.1,-81.8 252.1,-87.8 246.1,-87.8 246.1,-87.8 216.1,-87.8 216.1,-87.8 210.1,-87.8 204.1,-81.8 204.1,-75.8 204.1,-75.8 204.1,-63.8 204.1,-63.8 204.1,-57.8 210.1,-51.8 216.1,-51.8"/>
<text text-anchor="middle" x="231.1" y="-66.1" font-family="Arial" font-size="14.00" fill="#000000">R 0</text>
</g>
<!-- system.ruby.network.routers3 -->
<g id="node4" class="node">
<title>system.ruby.network.routers3</title>
<path fill="#cce6fc" stroke="#000000" d="M158.81,-106.48C158.81,-106.48 188.81,-106.48 188.81,-106.48 194.81,-106.48 200.81,-112.48 200.81,-118.48 200.81,-118.48 200.81,-130.48 200.81,-130.48 200.81,-136.48 194.81,-142.48 188.81,-142.48 188.81,-142.48 158.81,-142.48 158.81,-142.48 152.81,-142.48 146.81,-136.48 146.81,-130.48 146.81,-130.48 146.81,-118.48 146.81,-118.48 146.81,-112.48 152.81,-106.48 158.81,-106.48"/>
<text text-anchor="middle" x="173.81" y="-120.78" font-family="Arial" font-size="14.00" fill="#000000">R 3</text>
</g>
<!-- system.ruby.network.routers0&#45;&#45;system.ruby.network.routers3 -->
<g id="edge1" class="edge">
<title>system.ruby.network.routers0&#45;&#45;system.ruby.network.routers3</title>
<path fill="none" stroke="#042d50" d="M203.89,-86.62C199.53,-90.52 195.14,-94.73 191.09,-98.89"/>
<polygon fill="#042d50" stroke="#042d50" points="188.5,-96.54 184.27,-106.25 193.63,-101.3 188.5,-96.54"/>
</g>
<!-- system.ruby.network.routers1 -->
<g id="node2" class="node">
<title>system.ruby.network.routers1</title>
<path fill="#cce6fc" stroke="#000000" d="M177.46,-183.42C177.46,-183.42 207.46,-183.42 207.46,-183.42 213.46,-183.42 219.46,-189.42 219.46,-195.42 219.46,-195.42 219.46,-207.42 219.46,-207.42 219.46,-213.42 213.46,-219.42 207.46,-219.42 207.46,-219.42 177.46,-219.42 177.46,-219.42 171.46,-219.42 165.46,-213.42 165.46,-207.42 165.46,-207.42 165.46,-195.42 165.46,-195.42 165.46,-189.42 171.46,-183.42 177.46,-183.42"/>
<text text-anchor="middle" x="192.46" y="-197.72" font-family="Arial" font-size="14.00" fill="#000000">R 1</text>
</g>
<!-- system.ruby.network.routers1&#45;&#45;system.ruby.network.routers3 -->
<g id="edge2" class="edge">
<title>system.ruby.network.routers1&#45;&#45;system.ruby.network.routers3</title>
<path fill="none" stroke="#042d50" d="M193.93,-183.39C192.73,-174.2 190.28,-162.84 187.39,-152.54"/>
<polygon fill="#042d50" stroke="#042d50" points="190.66,-151.26 184.38,-142.73 183.97,-153.31 190.66,-151.26"/>
</g>
<!-- system.ruby.network.routers2 -->
<g id="node3" class="node">
<title>system.ruby.network.routers2</title>
<path fill="#cce6fc" stroke="#000000" d="M82.77,-84.41C82.77,-84.41 112.77,-84.41 112.77,-84.41 118.77,-84.41 124.77,-90.41 124.77,-96.41 124.77,-96.41 124.77,-108.41 124.77,-108.41 124.77,-114.41 118.77,-120.41 112.77,-120.41 112.77,-120.41 82.77,-120.41 82.77,-120.41 76.77,-120.41 70.77,-114.41 70.77,-108.41 70.77,-108.41 70.77,-96.41 70.77,-96.41 70.77,-90.41 76.77,-84.41 82.77,-84.41"/>
<text text-anchor="middle" x="97.77" y="-98.71" font-family="Arial" font-size="14.00" fill="#000000">R 2</text>
</g>
<!-- system.ruby.network.routers2&#45;&#45;system.ruby.network.routers3 -->
<g id="edge3" class="edge">
<title>system.ruby.network.routers2&#45;&#45;system.ruby.network.routers3</title>
<path fill="none" stroke="#042d50" d="M124.79,-110.25C128.67,-111.37 132.71,-112.55 136.74,-113.72"/>
<polygon fill="#042d50" stroke="#042d50" points="136.04,-117.16 146.62,-116.58 137.99,-110.44 136.04,-117.16"/>
</g>
<!-- system.ruby.network.routers3&#45;&#45;system.ruby.network.routers0 -->
<g id="edge4" class="edge">
<title>system.ruby.network.routers3&#45;&#45;system.ruby.network.routers0</title>
<path fill="none" stroke="#042d50" d="M201.02,-107.65C205.37,-103.76 209.77,-99.55 213.82,-95.39"/>
<polygon fill="#042d50" stroke="#042d50" points="216.41,-97.74 220.64,-88.03 211.27,-92.98 216.41,-97.74"/>
</g>
<!-- system.ruby.network.routers3&#45;&#45;system.ruby.network.routers1 -->
<g id="edge5" class="edge">
<title>system.ruby.network.routers3&#45;&#45;system.ruby.network.routers1</title>
<path fill="none" stroke="#042d50" d="M172.34,-142.51C173.54,-151.69 175.99,-163.06 178.88,-173.35"/>
<polygon fill="#042d50" stroke="#042d50" points="175.61,-174.64 181.89,-183.17 182.3,-172.58 175.61,-174.64"/>
</g>
<!-- system.ruby.l1_cntrl0 -->
<g id="node5" class="node">
<title>system.ruby.l1_cntrl0</title>
<path fill="#e5bcd0" stroke="#000000" d="M269.9,-0.5C269.9,-0.5 299.9,-0.5 299.9,-0.5 305.9,-0.5 311.9,-6.5 311.9,-12.5 311.9,-12.5 311.9,-24.5 311.9,-24.5 311.9,-30.5 305.9,-36.5 299.9,-36.5 299.9,-36.5 269.9,-36.5 269.9,-36.5 263.9,-36.5 257.9,-30.5 257.9,-24.5 257.9,-24.5 257.9,-12.5 257.9,-12.5 257.9,-6.5 263.9,-0.5 269.9,-0.5"/>
<text text-anchor="middle" x="284.9" y="-14.8" font-family="Arial" font-size="14.00" fill="#000000">l1</text>
</g>
<!-- system.ruby.l1_cntrl0&#45;&#45;system.ruby.network.routers0 -->
<g id="edge6" class="edge">
<title>system.ruby.l1_cntrl0&#45;&#45;system.ruby.network.routers0</title>
<path fill="none" stroke="#381526" d="M258.46,-43.71C258.11,-44.04 257.76,-44.38 257.41,-44.71"/>
<polygon fill="#381526" stroke="#381526" points="260.96,-46.17 265.78,-36.73 256.13,-41.1 260.96,-46.17"/>
<polygon fill="#381526" stroke="#381526" points="254.98,-42.2 250.16,-51.63 259.81,-47.26 254.98,-42.2"/>
</g>
<!-- system.ruby.l2_cntrl0 -->
<g id="node6" class="node">
<title>system.ruby.l2_cntrl0</title>
<path fill="#e5bcd0" stroke="#000000" d="M195.56,-255.51C195.56,-255.51 225.56,-255.51 225.56,-255.51 231.56,-255.51 237.56,-261.51 237.56,-267.51 237.56,-267.51 237.56,-279.51 237.56,-279.51 237.56,-285.51 231.56,-291.51 225.56,-291.51 225.56,-291.51 195.56,-291.51 195.56,-291.51 189.56,-291.51 183.56,-285.51 183.56,-279.51 183.56,-279.51 183.56,-267.51 183.56,-267.51 183.56,-261.51 189.56,-255.51 195.56,-255.51"/>
<text text-anchor="middle" x="210.56" y="-269.81" font-family="Arial" font-size="14.00" fill="#000000">l2</text>
</g>
<!-- system.ruby.l2_cntrl0&#45;&#45;system.ruby.network.routers1 -->
<g id="edge7" class="edge">
<title>system.ruby.l2_cntrl0&#45;&#45;system.ruby.network.routers1</title>
<path fill="none" stroke="#381526" d="M203.53,-245.53C202.2,-240.23 200.81,-234.68 199.48,-229.37"/>
<polygon fill="#381526" stroke="#381526" points="200.16,-246.47 205.99,-255.32 206.95,-244.77 200.16,-246.47"/>
<polygon fill="#381526" stroke="#381526" points="202.85,-228.45 197.02,-219.6 196.06,-230.16 202.85,-228.45"/>
</g>
<!-- system.ruby.dir_cntrl0 -->
<g id="node7" class="node">
<title>system.ruby.dir_cntrl0</title>
<path fill="#e5bcd0" stroke="#000000" d="M12,-61.6C12,-61.6 42,-61.6 42,-61.6 48,-61.6 54,-67.6 54,-73.6 54,-73.6 54,-85.6 54,-85.6 54,-91.6 48,-97.6 42,-97.6 42,-97.6 12,-97.6 12,-97.6 6,-97.6 0,-91.6 0,-85.6 0,-85.6 0,-73.6 0,-73.6 0,-67.6 6,-61.6 12,-61.6"/>
<text text-anchor="middle" x="27" y="-75.9" font-family="Arial" font-size="14.00" fill="#000000">dir</text>
</g>
<!-- system.ruby.dir_cntrl0&#45;&#45;system.ruby.network.routers2 -->
<g id="edge8" class="edge">
<title>system.ruby.dir_cntrl0&#45;&#45;system.ruby.network.routers2</title>
<path fill="none" stroke="#381526" d="M63.77,-91.45C63.91,-91.5 64.04,-91.54 64.18,-91.58"/>
<polygon fill="#381526" stroke="#381526" points="64.75,-88.09 54.16,-88.35 62.6,-94.75 64.75,-88.09"/>
<polygon fill="#381526" stroke="#381526" points="59.74,-93.83 70.33,-93.57 61.89,-87.17 59.74,-93.83"/>
</g>
</g>
</svg>
