<?xml version="1.0" encoding="UTF-8" standalone="no"?>
<!DOCTYPE svg PUBLIC "-//W3C//DTD SVG 1.1//EN"
 "http://www.w3.org/Graphics/SVG/1.1/DTD/svg11.dtd">
<!-- Generated by graphviz version 2.43.0 (0)
 -->
<!-- Title: G Pages: 1 -->
<svg width="265pt" height="229pt"
 viewBox="0.00 0.00 264.87 228.97" xmlns="http://www.w3.org/2000/svg" xmlns:xlink="http://www.w3.org/1999/xlink">
<g id="graph0" class="graph" transform="scale(1 1) rotate(0) translate(4 224.97)">
<title>G</title>
<polygon fill="white" stroke="transparent" points="-4,4 -4,-224.97 260.87,-224.97 260.87,4 -4,4"/>
<!-- system.caches.network.routers0 -->
<g id="node1" class="node">
<title>system.caches.network.routers0</title>
<path fill="#cce6fc" stroke="#000000" d="M80.06,-49.72C80.06,-49.72 110.06,-49.72 110.06,-49.72 116.06,-49.72 122.06,-55.72 122.06,-61.72 122.06,-61.72 122.06,-73.72 122.06,-73.72 122.06,-79.72 116.06,-85.72 110.06,-85.72 110.06,-85.72 80.06,-85.72 80.06,-85.72 74.06,-85.72 68.06,-79.72 68.06,-73.72 68.06,-73.72 68.06,-61.72 68.06,-61.72 68.06,-55.72 74.06,-49.72 80.06,-49.72"/>
<text text-anchor="middle" x="95.06" y="-64.02" font-family="Arial" font-size="14.00" fill="#000000">R 0</text>
</g>
<!-- system.caches.network.routers1 -->
<g id="node2" class="node">
<title>system.caches.network.routers1</title>
<path fill="#cce6fc" stroke="#000000" d="M153.45,-43.11C153.45,-43.11 183.45,-43.11 183.45,-43.11 189.45,-43.11 195.45,-49.11 195.45,-55.11 195.45,-55.11 195.45,-67.11 195.45,-67.11 195.45,-73.11 189.45,-79.11 183.45,-79.11 183.45,-79.11 153.45,-79.11 153.45,-79.11 147.45,-79.11 141.45,-73.11 141.45,-67.11 141.45,-67.11 141.45,-55.11 141.45,-55.11 141.45,-49.11 147.45,-43.11 153.45,-43.11"/>
<text text-anchor="middle" x="168.45" y="-57.41" font-family="Arial" font-size="14.00" fill="#000000">R 1</text>
</g>
<!-- system.caches.network.routers0&#45;&#45;system.caches.network.routers1 -->
<g id="edge1" class="edge">
<title>system.caches.network.routers0&#45;&#45;system.caches.network.routers1</title>
<path fill="none" stroke="#042d50" d="M122.39,-65.26C125.29,-65 128.28,-64.73 131.27,-64.46"/>
<polygon fill="#042d50" stroke="#042d50" points="131.7,-67.93 141.34,-63.55 131.07,-60.96 131.7,-67.93"/>
</g>
<!-- system.caches.network.routers2 -->
<g id="node3" class="node">
<title>system.caches.network.routers2</title>
<path fill="#cce6fc" stroke="#000000" d="M122.49,-110.02C122.49,-110.02 152.49,-110.02 152.49,-110.02 158.49,-110.02 164.49,-116.02 164.49,-122.02 164.49,-122.02 164.49,-134.02 164.49,-134.02 164.49,-140.02 158.49,-146.02 152.49,-146.02 152.49,-146.02 122.49,-146.02 122.49,-146.02 116.49,-146.02 110.49,-140.02 110.49,-134.02 110.49,-134.02 110.49,-122.02 110.49,-122.02 110.49,-116.02 116.49,-110.02 122.49,-110.02"/>
<text text-anchor="middle" x="137.49" y="-124.32" font-family="Arial" font-size="14.00" fill="#000000">R 2</text>
</g>
<!-- system.caches.network.routers0&#45;&#45;system.caches.network.routers2 -->
<g id="edge2" class="edge">
<title>system.caches.network.routers0&#45;&#45;system.caches.network.routers2</title>
<path fill="none" stroke="#042d50" d="M100.71,-86.03C103.54,-91.02 107.06,-96.51 110.81,-101.83"/>
<polygon fill="#042d50" stroke="#042d50" points="108.07,-104.01 116.82,-109.97 113.7,-99.85 108.07,-104.01"/>
</g>
<!-- system.caches.network.routers1&#45;&#45;system.caches.network.routers2 -->
<g id="edge3" class="edge">
<title>system.caches.network.routers1&#45;&#45;system.caches.network.routers2</title>
<path fill="none" stroke="#042d50" d="M159.99,-79.39C156.98,-85.88 153.53,-93.34 150.25,-100.43"/>
<polygon fill="#042d50" stroke="#042d50" points="146.96,-99.21 145.94,-109.76 153.31,-102.15 146.96,-99.21"/>
</g>
<!-- system.caches.network.routers2&#45;&#45;system.caches.network.routers0 -->
<g id="edge4" class="edge">
<title>system.caches.network.routers2&#45;&#45;system.caches.network.routers0</title>
<path fill="none" stroke="#042d50" d="M131.84,-109.71C129.01,-104.72 125.49,-99.23 121.73,-93.9"/>
<polygon fill="#042d50" stroke="#042d50" points="124.48,-91.73 115.72,-85.76 118.85,-95.89 124.48,-91.73"/>
</g>
<!-- system.caches.controllers0 -->
<g id="node4" class="node">
<title>system.caches.controllers0</title>
<path fill="#e5bcd0" stroke="#000000" d="M12,-18.81C12,-18.81 42,-18.81 42,-18.81 48,-18.81 54,-24.81 54,-30.81 54,-30.81 54,-42.81 54,-42.81 54,-48.81 48,-54.81 42,-54.81 42,-54.81 12,-54.81 12,-54.81 6,-54.81 0,-48.81 0,-42.81 0,-42.81 0,-30.81 0,-30.81 0,-24.81 6,-18.81 12,-18.81"/>
<text text-anchor="middle" x="27" y="-33.11" font-family="Arial" font-size="14.00" fill="#000000">0</text>
</g>
<!-- system.caches.controllers0&#45;&#45;system.caches.network.routers0 -->
<g id="edge5" class="edge">
<title>system.caches.controllers0&#45;&#45;system.caches.network.routers0</title>
<path fill="none" stroke="#381526" d="M63.57,-53.42C63.65,-53.46 63.74,-53.5 63.83,-53.54"/>
<polygon fill="#381526" stroke="#381526" points="64.84,-50.15 54.29,-49.21 61.95,-56.53 64.84,-50.15"/>
<polygon fill="#381526" stroke="#381526" points="57.21,-54.38 67.76,-55.32 60.11,-48 57.21,-54.38"/>
</g>
<!-- system.caches.controllers1 -->
<g id="node5" class="node">
<title>system.caches.controllers1</title>
<path fill="#e5bcd0" stroke="#000000" d="M214.87,-0.5C214.87,-0.5 244.87,-0.5 244.87,-0.5 250.87,-0.5 256.87,-6.5 256.87,-12.5 256.87,-12.5 256.87,-24.5 256.87,-24.5 256.87,-30.5 250.87,-36.5 244.87,-36.5 244.87,-36.5 214.87,-36.5 214.87,-36.5 208.87,-36.5 202.87,-30.5 202.87,-24.5 202.87,-24.5 202.87,-12.5 202.87,-12.5 202.87,-6.5 208.87,-0.5 214.87,-0.5"/>
<text text-anchor="middle" x="229.87" y="-14.8" font-family="Arial" font-size="14.00" fill="#000000">1</text>
</g>
<!-- system.caches.controllers1&#45;&#45;system.caches.network.routers1 -->
<g id="edge6" class="edge">
<title>system.caches.controllers1&#45;&#45;system.caches.network.routers1</title>
<path fill="none" stroke="#381526" d="M195.58,-42.29C195.44,-42.38 195.3,-42.48 195.16,-42.58"/>
<polygon fill="#381526" stroke="#381526" points="197.6,-45.15 203.82,-36.57 193.61,-39.39 197.6,-45.15"/>
<polygon fill="#381526" stroke="#381526" points="200.95,-34.3 194.73,-42.88 204.94,-40.05 200.95,-34.3"/>
</g>
<!-- system.caches.controllers2 -->
<g id="node6" class="node">
<title>system.caches.controllers2</title>
<path fill="#e5bcd0" stroke="#000000" d="M129.18,-184.47C129.18,-184.47 159.18,-184.47 159.18,-184.47 165.18,-184.47 171.18,-190.47 171.18,-196.47 171.18,-196.47 171.18,-208.47 171.18,-208.47 171.18,-214.47 165.18,-220.47 159.18,-220.47 159.18,-220.47 129.18,-220.47 129.18,-220.47 123.18,-220.47 117.18,-214.47 117.18,-208.47 117.18,-208.47 117.18,-196.47 117.18,-196.47 117.18,-190.47 123.18,-184.47 129.18,-184.47"/>
<text text-anchor="middle" x="144.18" y="-198.77" font-family="Arial" font-size="14.00" fill="#000000">2</text>
</g>
<!-- system.caches.controllers2&#45;&#45;system.caches.network.routers2 -->
<g id="edge7" class="edge">
<title>system.caches.controllers2&#45;&#45;system.caches.network.routers2</title>
<path fill="none" stroke="#381526" d="M141.65,-174.29C141.12,-168.39 140.56,-162.17 140.03,-156.27"/>
<polygon fill="#381526" stroke="#381526" points="138.18,-174.8 142.56,-184.45 145.15,-174.17 138.18,-174.8"/>
<polygon fill="#381526" stroke="#381526" points="143.5,-155.78 139.12,-146.13 136.53,-156.4 143.5,-155.78"/>
</g>
</g>
</svg>
